<?xml version="1.0" encoding="utf-8"?>
<!-- Generator: Adobe Illustrator 15.0.0, SVG Export Plug-In . SVG Version: 6.00 Build 0)  -->
<!DOCTYPE svg PUBLIC "-//W3C//DTD SVG 1.1//EN" "http://www.w3.org/Graphics/SVG/1.1/DTD/svg11.dtd">
<svg version="1.1" id="Layer_1" xmlns="http://www.w3.org/2000/svg" xmlns:xlink="http://www.w3.org/1999/xlink" x="0px" y="0px"
	 width="470px" height="250px" viewBox="0 0 470 250" enable-background="new 0 0 470 250" xml:space="preserve">
<g id="Layer_2" display="none">
	<rect x="169.5" display="inline" fill="#BCBCBE" width="50" height="50"/>
	<rect x="169.5" y="50" display="inline" fill="#DCDCDE" width="50" height="50"/>
	<rect x="119.5" y="50" display="inline" fill="#BCBCBE" width="50" height="50"/>
	<rect x="219.5" display="inline" fill="#DCDCDE" width="50" height="50"/>
	<rect x="219.5" y="50" display="inline" fill="#BCBCBE" width="50" height="50"/>
	<rect x="269.5" display="inline" fill="#BCBCBE" width="50" height="50"/>
	<rect x="269.5" y="50" display="inline" fill="#DCDCDE" width="50" height="50"/>
	<rect x="-30.5" y="50" display="inline" fill="#DCDCDE" width="50" height="50"/>
	<rect x="19.5" y="50" display="inline" fill="#BCBCBE" width="50" height="50"/>
	<rect x="69.5" y="50" display="inline" fill="#DCDCDE" width="50" height="50"/>
	<rect x="319.5" display="inline" fill="#DCDCDE" width="50" height="50"/>
	<rect x="319.5" y="50" display="inline" fill="#BCBCBE" width="50" height="50"/>
	<rect x="369.5" display="inline" fill="#BCBCBE" width="50" height="50"/>
	<rect x="369.5" y="50" display="inline" fill="#DCDCDE" width="50" height="50"/>
	<rect x="419.5" display="inline" fill="#DCDCDE" width="50" height="50"/>
	<rect x="169.5" y="100" display="inline" fill="#BCBCBE" width="50" height="50"/>
	<rect x="219.5" y="100" display="inline" fill="#DCDCDE" width="50" height="50"/>
	<rect x="269.5" y="100" display="inline" fill="#BCBCBE" width="50" height="50"/>
	<rect x="319.5" y="100" display="inline" fill="#DCDCDE" width="50" height="50"/>
	<rect x="369.5" y="100" display="inline" fill="#BCBCBE" width="50" height="50"/>
	<rect x="419.5" y="100" display="inline" fill="#DCDCDE" width="50" height="50"/>
	<rect x="419.5" y="150" display="inline" fill="#BCBCBE" width="50" height="50"/>
	<rect x="369.5" y="150" display="inline" fill="#DCDCDE" width="50" height="50"/>
	<rect x="319.5" y="150" display="inline" fill="#BCBCBE" width="50" height="50"/>
	<rect x="269.5" y="150" display="inline" fill="#DCDCDE" width="50" height="50"/>
	<rect x="219.5" y="150" display="inline" fill="#BCBCBE" width="50" height="50"/>
	<rect x="169.5" y="150" display="inline" fill="#DCDCDE" width="50" height="50"/>
	<rect x="169.5" y="200" display="inline" fill="#BCBCBE" width="50" height="50"/>
	<rect x="219.5" y="200" display="inline" fill="#DCDCDE" width="50" height="50"/>
	<rect x="269.5" y="200" display="inline" fill="#BCBCBE" width="50" height="50"/>
	<rect x="319.5" y="200.002" display="inline" fill="#DCDCDE" width="50" height="50"/>
	<rect x="369.5" y="200.002" display="inline" fill="#BCBCBE" width="50" height="50"/>
	<rect x="419.5" y="200.002" display="inline" fill="#DCDCDE" width="50" height="50"/>
	<rect x="419.5" y="50" display="inline" fill="#BCBCBE" width="50" height="50"/>
</g>
<g id="Layer_1_1_">
	<path fill="#C7C7CC" d="M352.779,31.795l-4.229-4.229c0.872-1.169,1.396-2.615,1.396-4.187c0-3.878-3.144-7.021-7.021-7.021
		s-7.021,3.144-7.021,7.021s3.144,7.019,7.021,7.019c1.524,0,2.933-0.491,4.083-1.315l4.241,4.239c0.421,0.424,1.104,0.424,1.526,0
		C353.199,32.901,353.199,32.217,352.779,31.795z M342.927,28.239c-2.685,0-4.86-2.175-4.86-4.859s2.177-4.861,4.86-4.861
		c2.685,0,4.858,2.177,4.858,4.861C347.785,26.065,345.611,28.239,342.927,28.239z"/>
	<path fill="#C7C7CC" d="M444.498,25.558l3.935-4.112c0.396-0.415,1.036-0.415,1.433,0l0.356,0.374c0.396,0.414,0.396,1.083,0,1.496
		l-4.63,4.84c-0.006,0.008-0.008,0.018-0.016,0.026l-0.356,0.374c-0.198,0.208-0.46,0.309-0.722,0.309
		c-0.26,0-0.521-0.101-0.719-0.309l-0.359-0.374c-0.006-0.008-0.006-0.019-0.014-0.026l-4.629-4.84
		c-0.396-0.413-0.396-1.082,0-1.496l0.356-0.374c0.396-0.415,1.037-0.415,1.433,0L444.498,25.558z"/>
	<circle fill="#5186FB" cx="394.5" cy="25" r="16.5"/>
	<g>
		<g opacity="0.27">
			<path d="M401.938,34h-14.875c-0.586,0-1.062-0.476-1.062-1.062v-1.063c0-0.896,1.062-1.061,1.062-1.061l5.521-2.737
				c-1.486-1.192-2.335-3.542-2.335-4.704v-2.656c0-1.76,1.903-3.718,4.251-3.718s4.249,1.958,4.249,3.718v2.656
				c0,1.278-0.841,3.554-2.313,4.713l5.502,2.727c0,0,1.062,0.181,1.062,1.061v1.063C403,33.524,402.523,34,401.938,34z"/>
		</g>
		<g>
			<path fill="#FFFFFF" d="M401.938,33h-14.875c-0.586,0-1.062-0.476-1.062-1.062v-1.063c0-0.896,1.062-1.061,1.062-1.061
				l5.521-2.737c-1.486-1.192-2.335-3.542-2.335-4.704v-2.656c0-1.76,1.903-3.718,4.251-3.718s4.249,1.958,4.249,3.718v2.656
				c0,1.278-0.841,3.554-2.313,4.713l5.502,2.727c0,0,1.062,0.181,1.062,1.061v1.063C403,32.524,402.523,33,401.938,33z"/>
		</g>
	</g>
	<path fill="#58585C" d="M289.688,24.169l-3.236,3.269c-0.162,0.157-0.264,0.381-0.264,0.625c0,0.481,0.391,0.875,0.867,0.875h6.133
		v5.468c0,0.604,0.49,1.094,1.094,1.094s1.096-0.489,1.096-1.094v-5.468h6.57c0.477,0,0.865-0.394,0.865-0.875
		c0-0.24-0.097-0.46-0.254-0.617l-3.246-3.281v-7.477h0.655c0.604,0,1.095-0.49,1.095-1.093s-0.489-1.095-1.095-1.095h-10.938
		c-0.603,0-1.092,0.49-1.092,1.095s0.489,1.093,1.092,1.093h0.658V24.169L289.688,24.169z M293.625,17.563v5.688
		c0,0.481-0.393,0.875-0.873,0.875s-0.875-0.393-0.875-0.875v-5.688c0-0.481,0.395-0.875,0.875-0.875S293.625,17.082,293.625,17.563
		z"/>
	<path id="dashboard-5-icon_14_" fill="#5186FB" d="M252.672,25.605c-0.145-0.437-0.32-0.861-0.525-1.266l-2.5,1.126
		c0.224,0.401,0.398,0.826,0.527,1.266L252.672,25.605z M239.863,24.683c0.277-0.36,0.592-0.686,0.938-0.974l-1.926-2.005
		c-0.334,0.3-0.648,0.626-0.938,0.974L239.863,24.683z M241.609,23.141c0.389-0.224,0.797-0.403,1.223-0.534l-1.055-2.616
		c-0.418,0.144-0.826,0.324-1.221,0.534L241.609,23.141z M238.799,26.824c0.123-0.442,0.293-0.871,0.508-1.273l-2.518-1.086
		c-0.199,0.411-0.369,0.837-0.506,1.273L238.799,26.824z M248.412,20.508c-0.395-0.208-0.805-0.385-1.225-0.528l-1.041,2.621
		c0.424,0.128,0.834,0.305,1.223,0.528L248.412,20.508z M251.061,22.678c-0.289-0.348-0.602-0.674-0.938-0.974l-1.924,2.005
		c0.346,0.288,0.658,0.614,0.936,0.974L251.061,22.678z M245.162,19.562c-0.225-0.017-0.445-0.026-0.662-0.026
		s-0.439,0.009-0.662,0.026v2.836c0.219-0.025,0.441-0.038,0.662-0.038s0.441,0.013,0.662,0.038V19.562z M244.5,33.602
		c-1.318,0-2.389-1.068-2.389-2.386c0-0.9,0.5-1.684,1.233-2.09l1.154-5.407l1.151,5.407c0.736,0.407,1.234,1.19,1.234,2.09
		C246.887,32.533,245.818,33.602,244.5,33.602z M233.916,34.168c-1.043-1.799-1.641-3.887-1.641-6.111
		c0-6.741,5.482-12.225,12.225-12.225s12.227,5.484,12.227,12.225c0,2.225-0.598,4.312-1.641,6.111l-2.062-1.19
		c0.84-1.447,1.32-3.129,1.32-4.921c0-5.428-4.416-9.844-9.844-9.844s-9.844,4.416-9.844,9.844c0,1.792,0.479,3.474,1.32,4.921
		L233.916,34.168z"/>
	<polygon fill="#5186FB" points="195.962,12.847 179,22.79 179,28.964 182.499,31.004 182.499,33.994 184.259,33.67 186.019,35.921 
		186.019,30.064 182.499,28.137 182.499,28.946 180.592,27.834 180.592,25.777 193.038,33.037 208.408,24.027 208.408,26.084 
		193.038,35.094 187.38,31.794 187.38,33.852 193.038,37.152 210,27.209 210,21.036 	"/>
	<path fill="#58585C" d="M352.779,81.797l-4.229-4.229c0.872-1.169,1.396-2.614,1.396-4.188c0-3.877-3.144-7.021-7.021-7.021
		s-7.021,3.144-7.021,7.021c0,3.879,3.144,7.02,7.021,7.02c1.524,0,2.933-0.49,4.083-1.316l4.241,4.24
		c0.421,0.423,1.104,0.423,1.526,0C353.199,82.902,353.199,82.219,352.779,81.797z M342.927,78.242c-2.685,0-4.86-2.176-4.86-4.859
		c0-2.685,2.177-4.861,4.86-4.861c2.685,0,4.858,2.177,4.858,4.861C347.785,76.066,345.611,78.242,342.927,78.242z"/>
	<path fill="#58585C" d="M444.498,75.559l3.935-4.111c0.396-0.416,1.036-0.416,1.433,0l0.356,0.373c0.396,0.414,0.396,1.084,0,1.496
		l-4.63,4.84c-0.006,0.008-0.008,0.019-0.016,0.025l-0.356,0.374c-0.198,0.208-0.46,0.31-0.722,0.31c-0.26,0-0.521-0.102-0.719-0.31
		l-0.359-0.374c-0.006-0.008-0.006-0.018-0.014-0.025l-4.629-4.84c-0.396-0.412-0.396-1.082,0-1.496l0.356-0.373
		c0.396-0.416,1.037-0.416,1.433,0L444.498,75.559z"/>
	<path fill="#C7C7CC" d="M289.688,74.168l-3.236,3.27c-0.162,0.156-0.264,0.381-0.264,0.625c0,0.48,0.391,0.875,0.867,0.875h6.133
		v5.469c0,0.604,0.49,1.095,1.094,1.095s1.096-0.49,1.096-1.095v-5.469h6.57c0.477,0,0.865-0.395,0.865-0.875
		c0-0.239-0.097-0.461-0.254-0.617l-3.246-3.28v-7.478h0.655c0.604,0,1.095-0.489,1.095-1.094c0-0.604-0.489-1.094-1.095-1.094
		h-10.938c-0.603,0-1.092,0.489-1.092,1.094c0,0.605,0.489,1.094,1.092,1.094h0.658V74.168L289.688,74.168z M293.625,67.562v5.688
		c0,0.48-0.393,0.874-0.873,0.874s-0.875-0.394-0.875-0.874v-5.688c0-0.481,0.395-0.875,0.875-0.875
		C293.232,66.688,293.625,67.081,293.625,67.562z"/>
	<path id="dashboard-5-icon_15_" fill="#C7C7CC" d="M252.672,75.606c-0.145-0.438-0.32-0.86-0.525-1.267l-2.5,1.127
		c0.224,0.4,0.398,0.825,0.527,1.266L252.672,75.606z M239.863,74.684c0.277-0.359,0.592-0.687,0.938-0.974l-1.926-2.006
		c-0.334,0.3-0.648,0.627-0.938,0.976L239.863,74.684z M241.609,73.143c0.389-0.226,0.797-0.403,1.223-0.534l-1.055-2.616
		c-0.418,0.145-0.826,0.324-1.221,0.535L241.609,73.143z M238.799,76.825c0.123-0.442,0.293-0.87,0.508-1.272l-2.518-1.086
		c-0.199,0.41-0.369,0.836-0.506,1.272L238.799,76.825z M248.412,70.51c-0.395-0.209-0.805-0.386-1.225-0.527l-1.041,2.619
		c0.424,0.13,0.834,0.307,1.223,0.529L248.412,70.51z M251.061,72.68c-0.289-0.348-0.602-0.674-0.938-0.975l-1.924,2.006
		c0.346,0.287,0.658,0.613,0.936,0.975L251.061,72.68z M245.162,69.562c-0.225-0.018-0.445-0.025-0.662-0.025
		s-0.439,0.01-0.662,0.025v2.836c0.219-0.024,0.441-0.037,0.662-0.037s0.441,0.013,0.662,0.037V69.562z M244.5,83.604
		c-1.318,0-2.389-1.068-2.389-2.387c0-0.9,0.5-1.685,1.233-2.091l1.154-5.407l1.151,5.407c0.736,0.406,1.234,1.189,1.234,2.091
		C246.887,82.535,245.818,83.604,244.5,83.604z M233.916,84.169c-1.043-1.8-1.641-3.887-1.641-6.11
		c0-6.741,5.482-12.227,12.225-12.227s12.227,5.484,12.227,12.227c0,2.225-0.598,4.312-1.641,6.11l-2.062-1.19
		c0.84-1.446,1.32-3.129,1.32-4.92c0-5.43-4.416-9.846-9.844-9.846s-9.844,4.416-9.844,9.846c0,1.791,0.479,3.474,1.32,4.92
		L233.916,84.169z"/>
	<polygon fill="#C7C7CC" points="195.962,62.848 179,72.791 179,78.965 182.499,81.005 182.499,83.994 184.259,83.67 
		186.019,85.922 186.019,80.064 182.499,78.138 182.499,78.947 180.592,77.834 180.592,75.777 193.038,83.037 208.408,74.027 
		208.408,76.084 193.038,85.095 187.38,81.795 187.38,83.853 193.038,87.152 210,77.209 210,71.037 	"/>
	<g>
		<g>
			<g>
				<path fill="#949499" d="M100.772,33.07v-2.93h2.321v2.93H100.772z"/>
				<path fill="#949499" d="M117.494,23.289c-0.471-2.13-1.769-3.429-4.036-3.429c-3.344,0-5.002,3.04-5.002,6.081
					s1.658,6.081,5.002,6.081c2.157,0,3.926-1.687,4.145-4.064h1.741c-0.469,3.427-2.708,5.527-5.886,5.527
					c-4.366,0-6.745-3.453-6.745-7.543c0-4.09,2.378-7.547,6.745-7.547c3.041,0,5.389,1.633,5.776,4.895L117.494,23.289
					L117.494,23.289z"/>
				<path fill="#949499" d="M134.546,25.94c0,4.09-2.376,7.543-6.745,7.543c-4.366,0-6.74-3.453-6.74-7.543
					c0-4.09,2.374-7.547,6.74-7.547C132.17,18.394,134.546,21.85,134.546,25.94z M122.802,25.94c0,3.042,1.658,6.081,4.999,6.081
					c3.346,0,5.003-3.04,5.003-6.081s-1.658-6.081-5.003-6.081C124.46,19.859,122.802,22.899,122.802,25.94z"/>
				<path fill="#949499" d="M137.146,18.811h1.604v2.406h0.083c0.911-1.716,2.405-2.823,4.67-2.823c1.879,0,3.565,0.914,4.09,2.794
					c0.857-1.88,2.654-2.794,4.533-2.794c3.122,0,4.726,1.633,4.726,5.004v9.673h-1.741v-9.59c0-2.351-0.884-3.621-3.372-3.621
					c-3.014,0-3.87,2.489-3.87,5.142v8.069h-1.74v-9.673c0.028-1.935-0.774-3.538-2.985-3.538c-3.012,0-4.229,2.267-4.256,5.253
					v7.958h-1.741L137.146,18.811L137.146,18.811z"/>
			</g>
		</g>
		<g>
			<path fill="#FF671B" d="M93.357,17.982v2.483c-0.471-1.093-2.218-2.95-4.981-2.962c-4.425-0.02-8.015,3.586-8.015,8.018
				c0,4.418,3.59,8.01,8.015,8.01c2.792,0,4.421-1.72,4.981-2.994v2.541h3.438V17.982H93.357z M88.376,30.09
				c-2.526,0-4.574-2.05-4.574-4.569c0-2.529,2.048-4.579,4.574-4.579c2.525,0,4.575,2.05,4.575,4.579
				C92.951,28.041,90.901,30.09,88.376,30.09z"/>
			<polygon fill="#FF671B" points="21.766,32.997 26.677,32.997 18.259,24.874 25.441,17.978 20.657,17.978 13.942,24.401 
				13.942,14 10.5,14 10.5,32.997 13.942,32.997 13.942,29.159 15.797,27.315 			"/>
			<path fill="#FF671B" d="M70.486,17.503c-4.422,0-8.007,3.586-8.007,8.008l0,0l0,0V37h3.437v-4.905
				c1.299,0.902,2.875,1.437,4.571,1.437c4.427,0,8.017-3.594,8.017-8.021C78.502,21.089,74.913,17.503,70.486,17.503z
				 M70.486,30.101c-2.53,0-4.583-2.05-4.583-4.589c0-2.526,2.053-4.579,4.583-4.579c2.538,0,4.586,2.053,4.586,4.579
				C75.072,28.05,73.024,30.101,70.486,30.101z"/>
			<path fill="#FF671B" d="M38.719,17.978v8.258c0,2.384-2.04,3.864-3.967,3.864l0,0l0,0c-1.93,0-3.963-1.48-3.963-3.864v-8.258
				h-3.436c0,0,0,7.571,0,7.585c0,4.424,3.312,8.014,7.399,8.014l0,0l0,0c4.094,0,7.406-3.59,7.406-8.014c0-0.014,0-7.585,0-7.585
				H38.719z"/>
			<path fill="#FF671B" d="M52.504,17.503c-4.433,0-8.015,3.586-8.015,8.008c0,4.426,3.582,8.021,8.015,8.021
				c2.213,0,4.211-0.902,5.667-2.348l-2.427-2.43c-0.83,0.836-1.975,1.347-3.241,1.347c-1.967,0-3.64-1.23-4.292-2.966h12.114
				l0.021,0.014c0.113-0.528,0.169-1.073,0.169-1.637C60.516,21.089,56.928,17.503,52.504,17.503z M52.504,20.932
				c1.962,0,3.637,1.23,4.289,2.962h-8.582C48.865,22.162,50.538,20.932,52.504,20.932z"/>
		</g>
	</g>
	<path id="home-6-icon" fill="#FF671B" d="M194.5,117.775l-8,7.995h1.65v6.455h12.699v-6.455h1.65L194.5,117.775z M199.102,130.477
		h-2.865v-3.357h-3.473v3.357h-2.865v-5.632l4.602-4.598l4.602,4.598L199.102,130.477L199.102,130.477z"/>
	<path id="gear-icon" fill="#C7C7CC" d="M452.5,126.077v-2.154l-1.164-0.414c-0.444-0.158-0.801-0.497-0.98-0.933h-0.002
		c-0.181-0.437-0.168-0.929,0.035-1.355l0.53-1.116l-1.524-1.523l-1.114,0.53c-0.427,0.203-0.919,0.216-1.355,0.034l0,0
		c-0.436-0.18-0.773-0.537-0.933-0.98L445.577,117h-2.154l-0.414,1.164c-0.158,0.444-0.497,0.802-0.933,0.981l0,0
		c-0.438,0.182-0.93,0.169-1.355-0.034l-1.115-0.53l-1.523,1.523l0.53,1.115c0.203,0.427,0.216,0.92,0.034,1.356c0,0,0,0,0,0.001
		c-0.182,0.436-0.537,0.773-0.981,0.932l-1.164,0.414v2.154l1.164,0.414c0.444,0.158,0.801,0.498,0.981,0.932
		c0,0.002,0,0.002,0,0.002c0.182,0.436,0.169,0.928-0.034,1.354l-0.53,1.115l1.523,1.524l1.115-0.528
		c0.426-0.205,0.919-0.218,1.355-0.037l0,0c0.436,0.183,0.773,0.539,0.932,0.981l0.415,1.165h2.154l0.411-1.157
		c0.16-0.448,0.502-0.808,0.94-0.991l0,0c0.433-0.179,0.92-0.166,1.343,0.034l1.123,0.533l1.523-1.524l-0.53-1.115
		c-0.203-0.426-0.216-0.918-0.034-1.354l0,0c0.182-0.436,0.537-0.774,0.981-0.934L452.5,126.077z M444.5,127.934
		c-1.62,0-2.934-1.312-2.934-2.934s1.312-2.934,2.934-2.934s2.934,1.313,2.934,2.934S446.12,127.934,444.5,127.934z"/>
	<path id="user-icon_1_" fill="#5186FB" d="M400.381,129.059c-2.292-0.529-4.426-0.992-3.393-2.941
		c3.146-5.931,0.834-9.103-2.488-9.103c-3.389,0-5.643,3.294-2.488,9.103c1.064,1.961-1.15,2.424-3.393,2.941
		c-2.292,0.527-2.116,1.735-2.116,3.928h15.994C402.497,130.794,402.673,129.586,400.381,129.059z"/>
	<path id="calendar-4-icon" fill="#6F52DB" d="M249.938,119.536c0,0.397-0.321,0.721-0.72,0.721c-0.397,0-0.72-0.323-0.72-0.721
		v-1.812c0-0.398,0.322-0.721,0.72-0.721c0.398,0,0.72,0.322,0.72,0.721V119.536z M240.538,117.72c0-0.396-0.322-0.72-0.72-0.72
		c-0.398,0-0.721,0.323-0.721,0.72v1.812c0,0.398,0.321,0.721,0.721,0.721c0.396,0,0.72-0.322,0.72-0.721V117.72z M250.811,118.772
		v0.736c0,0.878-0.713,1.592-1.592,1.592c-0.877,0-1.591-0.714-1.591-1.592v-0.736h-6.22v0.734c0,0.877-0.713,1.59-1.59,1.59
		s-1.592-0.713-1.592-1.59v-0.734H236.5V133h16v-14.228H250.811z M250.5,131h-12v-9h12V131z M244.641,127.743
		c0-0.582-0.306-1.04-0.809-1.233c0.385-0.191,0.607-0.587,0.607-1.095c0-0.979-0.955-1.564-1.879-1.564
		c-1.074,0-1.886,0.674-1.935,2.012h1.196c-0.012-0.554,0.197-0.956,0.746-0.956c0.326,0,0.679,0.196,0.679,0.632
		c0,0.549-0.595,0.627-1.142,0.58v0.932c0.777,0,1.24,0.049,1.24,0.717c0,0.526-0.397,0.765-0.793,0.765
		c-0.6,0-0.844-0.447-0.865-1.058H240.5c-0.021,1.377,0.812,2.104,2.068,2.104C243.691,129.576,244.641,128.891,244.641,127.743z
		 M247.779,129.479v-5.521h-1.014c-0.125,0.84-0.725,1.085-1.58,1.062V126h1.348v3.479H247.779z"/>
	<g>
		<polygon fill="#81CC47" points="291,126 291,122 287,122 287,129 297,129 297,126 		"/>
		<rect x="292" y="118" fill="#81CC47" width="10" height="7"/>
		<polygon fill="#81CC47" points="288,132 288,129 291,129 		"/>
		<polygon fill="#81CC47" points="301,128 301,125 298,125 		"/>
	</g>
	<g>
		<g>
			<path fill="#E61523" d="M336.227,129.041l0.728-0.672c0.853,0.412,1.394,0.725,2.348,1.408c1.8-2.043,2.988-3.078,5.197-4.451
				l0.235,0.543c-1.821,1.59-3.155,3.361-5.078,6.807C338.473,131.279,337.682,130.391,336.227,129.041z"/>
			<rect x="347.117" y="127.531" fill="#E61523" width="5.658" height="1.615"/>
			<rect x="347.117" y="130.562" fill="#E61523" width="5.658" height="1.614"/>
		</g>
		<g>
			<path fill="#E61523" d="M336.227,121.041l0.728-0.672c0.853,0.412,1.394,0.725,2.348,1.408c1.8-2.043,2.988-3.078,5.197-4.451
				l0.235,0.543c-1.821,1.59-3.155,3.361-5.078,6.807C338.473,123.279,337.682,122.391,336.227,121.041z"/>
			<rect x="347.117" y="119.531" fill="#E61523" width="5.658" height="1.615"/>
			<rect x="347.117" y="122.562" fill="#E61523" width="5.658" height="1.615"/>
		</g>
	</g>
	<path id="home-6-icon_2_" fill="#FFFFFF" d="M194.5,167.775l-8,7.994h1.65v6.455h12.699v-6.455h1.65L194.5,167.775z
		 M199.102,180.477h-2.865v-3.357h-3.473v3.357h-2.865v-5.632l4.602-4.598l4.602,4.598L199.102,180.477L199.102,180.477z"/>
	<path id="gear-icon_2_" fill="#FFFFFF" d="M452.5,176.077v-2.154l-1.164-0.414c-0.444-0.157-0.801-0.497-0.98-0.933h-0.002
		c-0.181-0.438-0.168-0.93,0.035-1.355l0.53-1.115l-1.524-1.523l-1.114,0.529c-0.427,0.203-0.919,0.217-1.355,0.035l0,0
		c-0.436-0.181-0.773-0.537-0.933-0.98L445.577,167h-2.154l-0.414,1.164c-0.158,0.443-0.497,0.802-0.933,0.98l0,0
		c-0.438,0.183-0.93,0.17-1.355-0.033l-1.115-0.53l-1.523,1.522l0.53,1.115c0.203,0.428,0.216,0.92,0.034,1.356c0,0,0,0,0,0.001
		c-0.182,0.436-0.537,0.773-0.981,0.932l-1.164,0.414v2.154l1.164,0.414c0.444,0.158,0.801,0.498,0.981,0.932
		c0,0.002,0,0.002,0,0.002c0.182,0.436,0.169,0.928-0.034,1.354l-0.53,1.115l1.523,1.524l1.115-0.528
		c0.426-0.205,0.919-0.218,1.355-0.037l0,0c0.436,0.183,0.773,0.539,0.932,0.981l0.415,1.165h2.154l0.411-1.157
		c0.16-0.448,0.502-0.808,0.94-0.991l0,0c0.433-0.179,0.92-0.166,1.343,0.034l1.123,0.533l1.523-1.524l-0.53-1.115
		c-0.203-0.426-0.216-0.918-0.034-1.354l0,0c0.182-0.436,0.537-0.774,0.981-0.934L452.5,176.077z M444.5,177.934
		c-1.62,0-2.934-1.312-2.934-2.934s1.312-2.934,2.934-2.934s2.934,1.312,2.934,2.934S446.12,177.934,444.5,177.934z"/>
	<path id="user-icon_3_" fill="#FFFFFF" d="M400.381,179.059c-2.292-0.529-4.426-0.992-3.393-2.941
		c3.146-5.932,0.834-9.104-2.488-9.104c-3.389,0-5.643,3.295-2.488,9.104c1.064,1.961-1.15,2.424-3.393,2.941
		c-2.292,0.527-2.116,1.735-2.116,3.928h15.994C402.497,180.794,402.673,179.586,400.381,179.059z"/>
	<path id="calendar-4-icon_2_" fill="#FFFFFF" d="M249.938,169.536c0,0.397-0.321,0.721-0.72,0.721c-0.397,0-0.72-0.323-0.72-0.721
		v-1.812c0-0.398,0.322-0.722,0.72-0.722c0.398,0,0.72,0.322,0.72,0.722V169.536z M240.538,167.72c0-0.396-0.322-0.72-0.72-0.72
		c-0.398,0-0.721,0.323-0.721,0.72v1.812c0,0.397,0.321,0.721,0.721,0.721c0.396,0,0.72-0.321,0.72-0.721V167.72z M250.811,168.771
		v0.736c0,0.878-0.713,1.592-1.592,1.592c-0.877,0-1.591-0.714-1.591-1.592v-0.736h-6.22v0.734c0,0.877-0.713,1.59-1.59,1.59
		s-1.592-0.713-1.592-1.59v-0.734H236.5V183h16v-14.229H250.811z M250.5,181h-12v-9h12V181z M244.641,177.743
		c0-0.582-0.306-1.04-0.809-1.233c0.385-0.191,0.607-0.587,0.607-1.095c0-0.979-0.955-1.563-1.879-1.563
		c-1.074,0-1.886,0.674-1.935,2.012h1.196c-0.012-0.555,0.197-0.956,0.746-0.956c0.326,0,0.679,0.196,0.679,0.632
		c0,0.549-0.595,0.627-1.142,0.58v0.932c0.777,0,1.24,0.049,1.24,0.717c0,0.526-0.397,0.765-0.793,0.765
		c-0.6,0-0.844-0.447-0.865-1.058H240.5c-0.021,1.377,0.812,2.104,2.068,2.104C243.691,179.576,244.641,178.891,244.641,177.743z
		 M247.779,179.479v-5.521h-1.014c-0.125,0.84-0.725,1.085-1.58,1.062V176h1.348v3.479H247.779z"/>
	<g>
		<polygon fill="#FFFFFF" points="291,176 291,172 287,172 287,179 297,179 297,176 		"/>
		<rect x="292" y="168" fill="#FFFFFF" width="10" height="7"/>
		<polygon fill="#FFFFFF" points="288,182 288,179 291,179 		"/>
		<polygon fill="#FFFFFF" points="301,178 301,175 298,175 		"/>
	</g>
	<g>
		<g>
			<path fill="#FFFFFF" d="M336.227,179.041l0.728-0.672c0.853,0.412,1.394,0.725,2.348,1.408c1.8-2.043,2.988-3.078,5.197-4.451
				l0.235,0.543c-1.821,1.59-3.155,3.361-5.078,6.807C338.473,181.279,337.682,180.391,336.227,179.041z"/>
			<rect x="347.117" y="177.531" fill="#FFFFFF" width="5.658" height="1.615"/>
			<rect x="347.117" y="180.562" fill="#FFFFFF" width="5.658" height="1.614"/>
		</g>
		<g>
			<path fill="#FFFFFF" d="M336.227,171.041l0.728-0.672c0.853,0.412,1.394,0.725,2.348,1.408c1.8-2.043,2.988-3.078,5.197-4.451
				l0.235,0.543c-1.821,1.59-3.155,3.361-5.078,6.807C338.473,173.279,337.682,172.391,336.227,171.041z"/>
			<rect x="347.117" y="169.531" fill="#FFFFFF" width="5.658" height="1.615"/>
			<rect x="347.117" y="172.562" fill="#FFFFFF" width="5.658" height="1.614"/>
		</g>
	</g>
	<g>
		<path fill="#FFFFFF" d="M194.5,219c-3.655,0-6.505,2.288-10,5.997c3.011,3.173,5.538,6.003,10,6.003s7.741-3.583,10-5.936
			C202.188,222.309,198.909,219,194.5,219z M194.5,229c-2.206,0-4-1.795-4-4c0-2.206,1.794-4,4-4s4,1.794,4,4
			C198.5,227.205,196.706,229,194.5,229z"/>
		<circle fill="#FFFFFF" cx="194.5" cy="225" r="2.333"/>
	</g>
	<g>
		<path fill="#FFFFFF" d="M251.23,218.27c-1.48-1.479-2.592-1.259-2.592-1.259l-5.183,5.183l-5.922,5.922L236.5,233l4.885-1.036
			l5.922-5.922l5.183-5.183C252.488,220.859,252.71,219.75,251.23,218.27z M241.096,231.376l-1.666,0.358
			c-0.162-0.301-0.354-0.602-0.709-0.955c-0.354-0.354-0.654-0.549-0.957-0.709l0.359-1.665l0.48-0.481c0,0,0.906,0.02,1.931,1.042
			c1.022,1.022,1.041,1.931,1.041,1.931L241.096,231.376z"/>
	</g>
	<path fill="#FFFFFF" d="M304.5,229.848V216h-20v13.848h9.615v1.486l-3.647,2.021l0.373,0.672L294.5,232l3.659,2.027l0.373-0.674
		l-3.647-2.021v-1.487h9.615V229.848z M299.885,220.615c1.272,0,2.309,1.035,2.309,2.308s-1.035,2.308-2.309,2.308
		s-2.308-1.035-2.308-2.308S298.611,220.615,299.885,220.615z M294.279,226.323l-2.463-3.435l-1.646,3.193l-2.175-4.389l-1.224,4.51
		l-0.742-0.201l1.754-6.468l2.4,4.844l1.525-2.96l2.281,3.182l1.679-5.634l0.737,0.222L294.279,226.323z"/>
</g>
<g opacity="0.2">
	<g>
		<path fill="#FFFFFF" d="M67.747,79.987v-1.84h1.461v1.84H67.747z"/>
		<path fill="#FFFFFF" d="M78.258,73.839c-0.296-1.34-1.112-2.156-2.537-2.156c-2.102,0-3.145,1.912-3.145,3.823
			c0,1.912,1.043,3.823,3.145,3.823c1.356,0,2.469-1.061,2.606-2.555h1.095c-0.295,2.154-1.703,3.475-3.701,3.475
			c-2.744,0-4.238-2.172-4.238-4.743s1.494-4.744,4.238-4.744c1.912,0,3.388,1.026,3.632,3.077H78.258z"/>
		<path fill="#FFFFFF" d="M88.978,75.506c0,2.571-1.493,4.743-4.239,4.743c-2.745,0-4.238-2.172-4.238-4.743
			s1.493-4.744,4.238-4.744C87.485,70.762,88.978,72.935,88.978,75.506z M81.595,75.506c0,1.912,1.042,3.823,3.144,3.823
			c2.103,0,3.145-1.911,3.145-3.823c0-1.911-1.042-3.823-3.145-3.823C82.637,71.683,81.595,73.595,81.595,75.506z"/>
		<path fill="#FFFFFF" d="M90.613,71.024h1.008v1.511h0.052c0.573-1.077,1.511-1.773,2.936-1.773c1.182,0,2.241,0.574,2.571,1.757
			c0.539-1.183,1.668-1.757,2.85-1.757c1.964,0,2.972,1.026,2.972,3.146v6.08h-1.096V73.96c0-1.479-0.555-2.277-2.119-2.277
			c-1.895,0-2.433,1.564-2.433,3.232v5.072h-1.095v-6.08c0.018-1.217-0.486-2.225-1.875-2.225c-1.894,0-2.658,1.425-2.676,3.303
			v5.002h-1.095V71.024z"/>
	</g>
	<g>
		<path fill="#FFFFFF" d="M63.086,70.503v1.562c-0.296-0.688-1.395-1.855-3.133-1.863c-2.78-0.013-5.038,2.255-5.038,5.04
			c0,2.778,2.257,5.036,5.038,5.036c1.757,0,2.78-1.082,3.133-1.883v1.598h2.161v-9.49H63.086z M59.954,78.115
			c-1.587,0-2.875-1.288-2.875-2.873c0-1.591,1.288-2.878,2.875-2.878c1.589,0,2.876,1.287,2.876,2.878
			C62.83,76.827,61.542,78.115,59.954,78.115z"/>
		<polygon fill="#FFFFFF" points="18.082,79.941 21.169,79.941 15.877,74.835 20.393,70.501 17.385,70.501 13.164,74.538 13.164,68 
			11,68 11,79.941 13.164,79.941 13.164,77.529 14.331,76.371 		"/>
		<path fill="#FFFFFF" d="M48.708,70.202c-2.78,0-5.033,2.255-5.033,5.034l0,0l0,0v7.223h2.16v-3.085
			c0.816,0.567,1.807,0.904,2.874,0.904c2.783,0,5.039-2.26,5.039-5.042C53.748,72.457,51.491,70.202,48.708,70.202z M48.708,78.121
			c-1.591,0-2.881-1.289-2.881-2.885c0-1.589,1.29-2.879,2.881-2.879c1.596,0,2.883,1.29,2.883,2.879
			C51.592,76.832,50.304,78.121,48.708,78.121z"/>
		<path fill="#FFFFFF" d="M28.739,70.501v5.191c0,1.499-1.282,2.429-2.494,2.429l0,0l0,0c-1.213,0-2.491-0.93-2.491-2.429v-5.191
			h-2.161c0,0,0,4.759,0,4.769c0,2.78,2.083,5.036,4.652,5.036l0,0l0,0c2.574,0,4.656-2.256,4.656-5.036c0-0.01,0-4.769,0-4.769
			H28.739z"/>
		<path fill="#FFFFFF" d="M37.405,70.202c-2.787,0-5.039,2.255-5.039,5.034c0,2.782,2.251,5.042,5.039,5.042
			c1.391,0,2.647-0.567,3.562-1.477l-1.524-1.527c-0.522,0.526-1.242,0.847-2.038,0.847c-1.235,0-2.288-0.772-2.698-1.864h7.615
			l0.012,0.009c0.072-0.333,0.107-0.675,0.107-1.029C42.441,72.457,40.186,70.202,37.405,70.202z M37.405,72.357
			c1.233,0,2.287,0.773,2.697,1.862h-5.395C35.117,73.131,36.169,72.357,37.405,72.357z"/>
	</g>
</g>
</svg>
