<?xml version="1.0" encoding="utf-8"?>
<!-- Generator: Adobe Illustrator 15.0.0, SVG Export Plug-In . SVG Version: 6.00 Build 0)  -->
<!DOCTYPE svg PUBLIC "-//W3C//DTD SVG 1.1//EN" "http://www.w3.org/Graphics/SVG/1.1/DTD/svg11.dtd">
<svg version="1.1" id="Layer_1" xmlns="http://www.w3.org/2000/svg" xmlns:xlink="http://www.w3.org/1999/xlink" x="0px" y="0px"
	 width="80px" height="80px" viewBox="0 0 80 80" enable-background="new 0 0 80 80" xml:space="preserve">
<path fill="#FFFFFF" d="M72.799,10.519c-11.412-1.298-22.787-1.257-33.902,1.913c-8.059,2.298-15.415,6.333-22.274,11.075
	c2.487-5.462,10.198-16.77,10.266-16.902c0.769-1.485-4.778-1.093-5.569,0.401c-1.572,2.973-3.574,5.839-5.521,8.749
	c-2.912,4.236-5.722,8.531-6.687,13.645c-0.199,0.928,0.538,1.174,1.515,1.111c0.365,0.014,0.716-0.008,0.944-0.032
	c7.108-0.755,13.662-0.657,20.63,1.004c1.69,0.403,6.81-2.197,3.599-2.963c-6.262-1.492-12.301-1.768-18.54-1.393
	c6.843-5.087,14.13-9.515,22.344-12.057c9.563-2.96,19.762-2.706,29.598-1.587C70.874,13.672,75.998,10.882,72.799,10.519z"/>
<path fill="#FFFFFF" d="M76.84,52.351c-0.301-0.033-14.525-3.317-21.401-5.003c-1.036-0.254-6.173,1.463-3.7,2.777
	c4.442,2.36,10.684,3.216,15.626,3.959C46.63,58.572,24.565,63.623,4.4,70.284c-3.086,1.02-2.415,3.792,0.737,2.75
	c21.119-6.977,42.81-11.865,64.531-16.543c-4.925,4.208-8.999,9.271-13.225,14.24c-1.543,1.815,3.796,1.501,4.931,0.167
	c4.948-5.817,9.652-11.927,16.103-16.172C79.003,53.721,78.528,52.538,76.84,52.351z"/>
</svg>
