<?xml version="1.0" encoding="utf-8"?>
<!-- Generator: Adobe Illustrator 15.0.0, SVG Export Plug-In . SVG Version: 6.00 Build 0)  -->
<!DOCTYPE svg PUBLIC "-//W3C//DTD SVG 1.1//EN" "http://www.w3.org/Graphics/SVG/1.1/DTD/svg11.dtd">
<svg version="1.1" id="Layer_1" xmlns="http://www.w3.org/2000/svg" xmlns:xlink="http://www.w3.org/1999/xlink" x="0px" y="0px"
	 width="512px" height="256px" viewBox="-51 0 512 256" enable-background="new -51 0 512 256" xml:space="preserve">
<path id="home-6-icon_8_" fill="#F76E26" d="M12.039,21L-33.5,65h9v36.984h73V65h9.078L12.039,21z M39.5,92.034h-17V73h-20v19.034
	h-18V59.974L12.039,33L39.5,59.974V92.034z"/>
<path id="calendar-4-icon_15_" fill="#6F52DB" d="M172.013,35.087c0,2.096-1.698,3.793-3.793,3.793
	c-2.094,0-3.792-1.697-3.792-3.793v-9.545c0-2.094,1.698-3.796,3.792-3.796c2.095,0,3.793,1.702,3.793,3.796V35.087z
	 M120.768,25.522c0-2.093-1.697-3.79-3.791-3.79c-2.097,0-3.793,1.697-3.793,3.79v9.548c0,2.093,1.697,3.792,3.793,3.792
	c2.094,0,3.791-1.699,3.791-3.792V25.522z M176.598,31.062v3.884c0,4.621-3.757,8.381-8.378,8.381c-4.62,0-8.376-3.76-8.376-8.381
	v-3.884h-34.492v3.869c0,4.619-3.756,8.376-8.375,8.376c-4.621,0-8.379-3.757-8.379-8.376v-3.869H99.5V106h86V31.062H176.598z
	 M176.5,98h-68V51h68V98z M144.622,80.394c0-3.075-1.605-5.479-4.256-6.497c2.029-1.014,3.207-3.093,3.207-5.764
	c0-5.157-5.031-8.243-9.896-8.243c-5.66,0-9.935,3.548-10.191,10.597h6.303c-0.056-2.916,1.041-5.04,3.93-5.04
	c1.722,0,3.574,1.045,3.574,3.331c0,2.892-3.13,3.307-6.008,3.055v4.905c4.093,0,6.533,0.26,6.533,3.777
	c0,2.775-2.099,4.019-4.179,4.019c-3.154,0-4.444-2.353-4.558-5.565h-6.259c-0.118,7.253,4.277,11.078,10.896,11.078
	C139.633,90.046,144.622,86.431,144.622,80.394z M161.158,89.521V60.458h-5.337c-0.661,4.421-3.813,5.716-8.325,5.593v5.161h7.098
	v18.31H161.158z"/>
<g>
	<polygon fill="#37A963" points="314.5,28 256.617,28 256.617,68 291.5,68 308.5,84.214 308.5,68 314.5,68 	"/>
	<polygon fill="#37A963" points="249.5,74 249.5,50.061 227.5,50.061 227.5,89.907 234.5,89.907 234.5,107 251.5,89.907 
		284.5,89.907 284.5,74 	"/>
</g>
<g>
	<path fill="#DF4A46" d="M358.5,82.713l3.398-3.139c3.975,1.922,6.496,3.386,10.963,6.572c8.399-9.533,13.949-14.369,24.265-20.785
		l1.106,2.541c-8.508,7.423-14.738,15.695-23.71,31.782C368.99,93.169,365.297,89.014,358.5,82.713z"/>
	<rect x="408.66" y="74" fill="#DF4A46" width="26.84" height="8"/>
	<rect x="408.66" y="89" fill="#DF4A46" width="26.84" height="8"/>
	<rect x="408.66" y="37" fill="#DF4A46" width="26.84" height="8"/>
	<rect x="408.66" y="52" fill="#DF4A46" width="26.84" height="8"/>
	<path fill="#DF4A46" d="M358.5,45.354l3.398-3.141c3.975,1.924,6.496,3.387,10.963,6.573c8.399-9.532,13.949-14.368,24.265-20.786
		l1.106,2.543c-8.508,7.422-14.738,15.693-23.71,31.78C368.99,55.809,365.297,51.655,358.5,45.354z"/>
</g>
<g>
	<circle fill-rule="evenodd" clip-rule="evenodd" fill="#5789FA" cx="270" cy="191.674" r="40.539"/>
	<g>
		<g opacity="0.27">
			<path fill-rule="evenodd" clip-rule="evenodd" d="M288.111,211.102h-36.549c-1.441,0-2.609-1.168-2.609-2.611v-2.611
				c0-2.201,2.609-2.604,2.609-2.604l13.568-6.726c-3.654-2.93-5.738-8.701-5.738-11.557v-6.525c0-4.324,4.678-9.135,10.445-9.135
				c5.766,0,10.439,4.811,10.439,9.135v6.525c0,3.141-2.066,8.732-5.684,11.581l13.518,6.701c0,0,2.609,0.444,2.609,2.604v2.611
				C290.721,209.934,289.553,211.102,288.111,211.102z"/>
		</g>
		<g>
			<path fill-rule="evenodd" clip-rule="evenodd" fill="#FFFFFF" d="M288.111,210.102h-36.549c-1.441,0-2.609-1.168-2.609-2.611
				v-2.611c0-2.201,2.609-2.604,2.609-2.604l13.568-6.726c-3.654-2.93-5.738-8.701-5.738-11.557v-6.525
				c0-4.324,4.678-9.135,10.445-9.135c5.766,0,10.439,4.811,10.439,9.135v6.525c0,3.141-2.066,8.732-5.684,11.581l13.518,6.701
				c0,0,2.609,0.444,2.609,2.604v2.611C290.721,208.934,289.553,210.102,288.111,210.102z"/>
		</g>
	</g>
</g>
<g id="dashboard-5-icon_17_">
	<g opacity="0.75">
		<path fill="#FFFFFF" d="M171.778,190.075c-0.502-1.521-1.121-3.007-1.838-4.423l-8.736,3.938c0.772,1.402,1.389,2.885,1.841,4.424
			L171.778,190.075z M127.015,186.856c0.967-1.258,2.064-2.397,3.273-3.408l-6.73-7.003c-1.167,1.043-2.266,2.188-3.27,3.403
			L127.015,186.856z M133.119,181.466c1.352-0.784,2.78-1.409,4.267-1.866l-3.683-9.141c-1.459,0.504-2.891,1.131-4.264,1.865
			L133.119,181.466z M123.297,194.336c0.428-1.547,1.022-3.041,1.773-4.447l-8.795-3.795c-0.698,1.432-1.293,2.927-1.772,4.447
			L123.297,194.336z M156.886,172.266c-1.377-0.727-2.811-1.348-4.272-1.844l-3.643,9.157c1.484,0.448,2.917,1.065,4.271,1.845
			L156.886,172.266z M166.146,179.849c-1.006-1.215-2.104-2.36-3.273-3.403l-6.727,7.003c1.207,1.011,2.306,2.15,3.271,3.408
			L166.146,179.849z M145.529,168.959c-0.781-0.061-1.556-0.094-2.313-0.094c-0.754,0-1.533,0.033-2.312,0.094v9.91
			c0.769-0.09,1.546-0.133,2.312-0.133c0.772,0,1.546,0.043,2.313,0.133V168.959z M143.221,218.023c-4.606,0-8.344-3.733-8.344-8.34
			c0-3.145,1.742-5.881,4.313-7.305l4.031-18.9l4.032,18.9c2.571,1.424,4.309,4.16,4.309,7.305
			C151.562,214.29,147.827,218.023,143.221,218.023z M106.23,220c-3.643-6.289-5.73-13.582-5.73-21.355
			c0-23.559,19.163-42.723,42.721-42.723c23.556,0,42.723,19.164,42.723,42.723c0,7.773-2.089,15.066-5.734,21.355l-7.203-4.159
			c2.934-5.062,4.615-10.935,4.615-17.196c0-18.971-15.434-34.402-34.401-34.402c-18.972,0-34.404,15.432-34.404,34.402
			c0,6.262,1.683,12.135,4.618,17.196L106.23,220z"/>
	</g>
	<g>
		<g>
			<path fill="#5789FA" d="M171.778,189.075c-0.502-1.521-1.121-3.007-1.838-4.423l-8.736,3.938
				c0.772,1.402,1.389,2.885,1.841,4.424L171.778,189.075z M127.015,185.856c0.967-1.258,2.064-2.397,3.273-3.408l-6.73-7.003
				c-1.167,1.043-2.266,2.188-3.27,3.403L127.015,185.856z M133.119,180.466c1.352-0.784,2.78-1.409,4.267-1.866l-3.683-9.141
				c-1.459,0.504-2.891,1.131-4.264,1.865L133.119,180.466z M123.297,193.336c0.428-1.547,1.022-3.041,1.773-4.447l-8.795-3.795
				c-0.698,1.432-1.293,2.927-1.772,4.447L123.297,193.336z M156.886,171.266c-1.377-0.727-2.811-1.348-4.272-1.844l-3.643,9.157
				c1.484,0.448,2.917,1.065,4.271,1.845L156.886,171.266z M166.146,178.849c-1.006-1.215-2.104-2.36-3.273-3.403l-6.727,7.003
				c1.207,1.011,2.306,2.15,3.271,3.408L166.146,178.849z M145.529,167.959c-0.781-0.061-1.556-0.094-2.313-0.094
				c-0.754,0-1.533,0.033-2.312,0.094v9.91c0.769-0.09,1.546-0.133,2.312-0.133c0.772,0,1.546,0.043,2.313,0.133V167.959z
				 M143.221,217.023c-4.606,0-8.344-3.733-8.344-8.34c0-3.145,1.742-5.881,4.313-7.305l4.031-18.9l4.032,18.9
				c2.571,1.424,4.309,4.16,4.309,7.305C151.562,213.29,147.827,217.023,143.221,217.023z M106.23,219
				c-3.643-6.289-5.73-13.582-5.73-21.355c0-23.559,19.163-42.723,42.721-42.723c23.556,0,42.723,19.164,42.723,42.723
				c0,7.773-2.089,15.066-5.734,21.355l-7.203-4.159c2.934-5.062,4.615-10.935,4.615-17.196c0-18.971-15.434-34.402-34.401-34.402
				c-18.972,0-34.404,15.432-34.404,34.402c0,6.262,1.683,12.135,4.618,17.196L106.23,219z"/>
		</g>
	</g>
</g>
<polygon fill="#5789FA" points="19.086,153.224 -34.582,184.684 -34.582,204.216 -23.511,210.67 -23.511,220.132 -17.943,219.104 
	-12.375,226.229 -12.375,207.695 -23.511,201.602 -23.511,204.162 -29.545,200.644 -29.545,194.133 9.833,217.102 58.463,188.596 
	58.463,195.107 9.833,223.613 -8.065,213.174 -8.065,219.682 9.833,230.123 63.5,198.665 63.5,179.132 "/>
<path id="gear-icon_14_" fill="#DBDBDB" d="M436.193,195.816v-10.327l-5.581-1.985c-2.127-0.759-3.84-2.383-4.704-4.471
	c-0.001,0-0.001,0-0.001,0c-0.868-2.094-0.808-4.454,0.164-6.498l2.542-5.346l-7.304-7.307l-5.346,2.541
	c-2.044,0.977-4.407,1.035-6.498,0.166c-0.001,0-0.001,0-0.003,0c-2.089-0.864-3.71-2.576-4.468-4.705l-1.984-5.58h-10.328
	l-1.985,5.58c-0.757,2.129-2.382,3.841-4.468,4.703c-0.001,0.002-0.001,0.002-0.002,0.002c-2.092,0.869-4.453,0.811-6.498-0.166
	l-5.347-2.541l-7.304,7.307l2.543,5.344c0.971,2.043,1.031,4.406,0.164,6.5c0,0,0,0-0.001,0.002
	c-0.865,2.086-2.575,3.71-4.703,4.469l-5.582,1.985v10.327l5.581,1.984c2.127,0.756,3.839,2.381,4.704,4.467
	c0.001,0.002,0.001,0.002,0.001,0.002c0.867,2.093,0.807,4.453-0.164,6.498l-2.543,5.348l7.304,7.305l5.346-2.542
	c2.044-0.973,4.408-1.036,6.499-0.166c0.001,0,0.002,0,0.003,0.001c2.087,0.865,3.71,2.575,4.466,4.703l1.986,5.584h10.328
	l1.973-5.546c0.764-2.149,2.402-3.878,4.508-4.753h0.002c2.07-0.862,4.41-0.805,6.436,0.161l5.381,2.558l7.304-7.305l-2.543-5.348
	c-0.971-2.045-1.031-4.405-0.164-6.494c0.001-0.002,0.001-0.002,0.001-0.004c0.865-2.088,2.578-3.713,4.709-4.469L436.193,195.816z
	 M397.847,204.713c-7.768,0-14.062-6.295-14.062-14.061c0-7.768,6.295-14.062,14.062-14.062s14.062,6.295,14.062,14.062
	C411.909,198.418,405.614,204.713,397.847,204.713z"/>
</svg>
