<?xml version="1.0" encoding="utf-8"?>
<!-- Generator: Adobe Illustrator 15.0.0, SVG Export Plug-In . SVG Version: 6.00 Build 0)  -->
<!DOCTYPE svg PUBLIC "-//W3C//DTD SVG 1.1//EN" "http://www.w3.org/Graphics/SVG/1.1/DTD/svg11.dtd">
<svg version="1.1" xmlns="http://www.w3.org/2000/svg" xmlns:xlink="http://www.w3.org/1999/xlink" x="0px" y="0px" width="470px"
	 height="250px" viewBox="-0.5 0 470 250" enable-background="new -0.5 0 470 250" xml:space="preserve">
<g id="Layer_2" display="none">
	<rect x="169.5" display="inline" fill="#BCBCBE" width="50" height="50"/>
	<rect x="169.5" y="50" display="inline" fill="#DCDCDE" width="50" height="50"/>
	<rect x="119.5" y="50" display="inline" fill="#BCBCBE" width="50" height="50"/>
	<rect x="219.5" display="inline" fill="#DCDCDE" width="50" height="50"/>
	<rect x="219.5" y="50" display="inline" fill="#BCBCBE" width="50" height="50"/>
	<rect x="269.5" display="inline" fill="#BCBCBE" width="50" height="50"/>
	<rect x="269.5" y="50" display="inline" fill="#DCDCDE" width="50" height="50"/>
	<rect x="-30.5" y="50" display="inline" fill="#DCDCDE" width="50" height="50"/>
	<rect x="19.5" y="50" display="inline" fill="#BCBCBE" width="50" height="50"/>
	<rect x="69.5" y="50" display="inline" fill="#DCDCDE" width="50" height="50"/>
	<rect x="319.5" display="inline" fill="#DCDCDE" width="50" height="50"/>
	<rect x="319.5" y="50" display="inline" fill="#BCBCBE" width="50" height="50"/>
	<rect x="369.5" display="inline" fill="#BCBCBE" width="50" height="50"/>
	<rect x="369.5" y="50" display="inline" fill="#DCDCDE" width="50" height="50"/>
	<rect x="419.5" display="inline" fill="#DCDCDE" width="50" height="50"/>
	<rect x="169.5" y="100" display="inline" fill="#BCBCBE" width="50" height="50"/>
	<rect x="219.5" y="100" display="inline" fill="#DCDCDE" width="50" height="50"/>
	<rect x="269.5" y="100" display="inline" fill="#BCBCBE" width="50" height="50"/>
	<rect x="319.5" y="100" display="inline" fill="#DCDCDE" width="50" height="50"/>
	<rect x="369.5" y="100" display="inline" fill="#BCBCBE" width="50" height="50"/>
	<rect x="419.5" y="100" display="inline" fill="#DCDCDE" width="50" height="50"/>
	<rect x="419.5" y="150" display="inline" fill="#BCBCBE" width="50" height="50"/>
	<rect x="369.5" y="150" display="inline" fill="#DCDCDE" width="50" height="50"/>
	<rect x="319.5" y="150" display="inline" fill="#BCBCBE" width="50" height="50"/>
	<rect x="269.5" y="150" display="inline" fill="#DCDCDE" width="50" height="50"/>
	<rect x="219.5" y="150" display="inline" fill="#BCBCBE" width="50" height="50"/>
	<rect x="169.5" y="150" display="inline" fill="#DCDCDE" width="50" height="50"/>
	<rect x="169.5" y="200" display="inline" fill="#BCBCBE" width="50" height="50"/>
	<rect x="219.5" y="200" display="inline" fill="#DCDCDE" width="50" height="50"/>
	<rect x="269.5" y="200" display="inline" fill="#BCBCBE" width="50" height="50"/>
	<rect x="319.5" y="200.002" display="inline" fill="#DCDCDE" width="50" height="50"/>
	<rect x="369.5" y="200.002" display="inline" fill="#BCBCBE" width="50" height="50"/>
	<rect x="419.5" y="200.002" display="inline" fill="#DCDCDE" width="50" height="50"/>
	<rect x="419.5" y="50" display="inline" fill="#BCBCBE" width="50" height="50"/>
</g>
<g id="Layer_1">
	<path fill="#C7C7CC" d="M352.779,31.795l-4.229-4.229c0.872-1.169,1.396-2.615,1.396-4.187c0-3.878-3.144-7.021-7.021-7.021
		s-7.021,3.144-7.021,7.021c0,3.877,3.144,7.019,7.021,7.019c1.524,0,2.933-0.491,4.083-1.315l4.241,4.239
		c0.421,0.424,1.104,0.424,1.526,0C353.199,32.901,353.199,32.217,352.779,31.795z M342.927,28.239c-2.685,0-4.86-2.175-4.86-4.859
		s2.176-4.861,4.86-4.861s4.858,2.177,4.858,4.861C347.785,26.065,345.611,28.239,342.927,28.239z"/>
	<path fill="#C7C7CC" d="M444.498,25.558l3.935-4.112c0.396-0.415,1.036-0.415,1.432,0l0.357,0.374c0.396,0.414,0.396,1.083,0,1.496
		l-4.63,4.84c-0.006,0.008-0.008,0.018-0.016,0.026l-0.356,0.374c-0.199,0.208-0.46,0.309-0.722,0.309
		c-0.26,0-0.521-0.101-0.719-0.309l-0.359-0.374c-0.006-0.008-0.006-0.019-0.014-0.026l-4.629-4.84
		c-0.396-0.413-0.396-1.082,0-1.496l0.357-0.374c0.395-0.415,1.037-0.415,1.432,0L444.498,25.558z"/>
	<circle fill="#5186FB" cx="394.5" cy="25" r="16.5"/>
	<g>
		<g opacity="0.27">
			<path d="M401.938,34h-14.875c-0.586,0-1.062-0.476-1.062-1.062v-1.063c0-0.896,1.062-1.061,1.062-1.061l5.521-2.737
				c-1.486-1.192-2.335-3.542-2.335-4.704v-2.656c0-1.76,1.903-3.718,4.251-3.718s4.249,1.958,4.249,3.718v2.656
				c0,1.278-0.841,3.554-2.313,4.713l5.502,2.727c0,0,1.062,0.181,1.062,1.061v1.063C403,33.524,402.523,34,401.938,34z"/>
		</g>
		<g>
			<path fill="#FFFFFF" d="M401.938,33h-14.875c-0.586,0-1.062-0.476-1.062-1.062v-1.063c0-0.896,1.062-1.061,1.062-1.061
				l5.521-2.737c-1.486-1.192-2.335-3.542-2.335-4.704v-2.656c0-1.76,1.903-3.718,4.251-3.718s4.249,1.958,4.249,3.718v2.656
				c0,1.278-0.841,3.554-2.313,4.713l5.502,2.727c0,0,1.062,0.181,1.062,1.061v1.063C403,32.524,402.523,33,401.938,33z"/>
		</g>
	</g>
	<path fill="#58585C" d="M289.688,24.169l-3.237,3.269c-0.162,0.157-0.264,0.381-0.264,0.625c0,0.481,0.391,0.875,0.867,0.875h6.134
		v5.468c0,0.604,0.49,1.094,1.093,1.094c0.604,0,1.096-0.489,1.096-1.094v-5.468h6.57c0.477,0,0.865-0.394,0.865-0.875
		c0-0.24-0.096-0.46-0.253-0.617l-3.246-3.281v-7.477h0.655c0.604,0,1.095-0.49,1.095-1.093c0-0.604-0.49-1.095-1.095-1.095H289.03
		c-0.603,0-1.093,0.49-1.093,1.095c0,0.604,0.49,1.093,1.093,1.093h0.657L289.688,24.169L289.688,24.169z M293.625,17.563v5.688
		c0,0.481-0.393,0.875-0.873,0.875c-0.481,0-0.875-0.393-0.875-0.875v-5.688c0-0.481,0.394-0.875,0.875-0.875
		C293.232,16.688,293.625,17.082,293.625,17.563z"/>
	<path id="dashboard-5-icon_14_" fill="#5186FB" d="M252.672,25.605c-0.145-0.437-0.32-0.861-0.525-1.266l-2.5,1.126
		c0.223,0.401,0.398,0.826,0.527,1.266L252.672,25.605z M239.863,24.683c0.277-0.36,0.592-0.686,0.938-0.974l-1.926-2.005
		c-0.334,0.3-0.648,0.626-0.938,0.974L239.863,24.683z M241.609,23.141c0.389-0.224,0.797-0.403,1.223-0.534l-1.055-2.616
		c-0.418,0.144-0.826,0.324-1.221,0.534L241.609,23.141z M238.799,26.824c0.123-0.442,0.293-0.871,0.508-1.273l-2.518-1.086
		c-0.199,0.411-0.369,0.837-0.506,1.273L238.799,26.824z M248.412,20.508c-0.395-0.208-0.805-0.385-1.225-0.528l-1.041,2.621
		c0.424,0.128,0.834,0.305,1.223,0.528L248.412,20.508z M251.061,22.678c-0.289-0.348-0.602-0.674-0.938-0.974l-1.924,2.005
		c0.346,0.288,0.658,0.614,0.936,0.974L251.061,22.678z M245.162,19.562c-0.225-0.017-0.445-0.026-0.662-0.026
		s-0.439,0.009-0.662,0.026v2.836c0.219-0.025,0.441-0.038,0.662-0.038s0.441,0.013,0.662,0.038V19.562z M244.5,33.602
		c-1.318,0-2.389-1.068-2.389-2.386c0-0.9,0.5-1.684,1.234-2.09l1.154-5.407l1.152,5.407c0.736,0.407,1.234,1.19,1.234,2.09
		C246.887,32.533,245.818,33.602,244.5,33.602z M233.916,34.168c-1.043-1.799-1.641-3.887-1.641-6.111
		c0-6.741,5.482-12.225,12.225-12.225s12.227,5.484,12.227,12.225c0,2.225-0.598,4.312-1.641,6.111l-2.062-1.19
		c0.84-1.447,1.32-3.129,1.32-4.921c0-5.428-4.416-9.844-9.844-9.844s-9.844,4.416-9.844,9.844c0,1.792,0.48,3.474,1.32,4.921
		L233.916,34.168z"/>
	<polygon fill="#5186FB" points="195.962,12.847 179,22.79 179,28.964 182.499,31.004 182.499,33.994 184.259,33.67 186.019,35.921 
		186.019,30.064 182.499,28.137 182.499,28.946 180.592,27.834 180.592,25.777 193.038,33.037 208.408,24.027 208.408,26.084 
		193.038,35.094 187.38,31.794 187.38,33.852 193.038,37.152 210,27.209 210,21.036 	"/>
	<path fill="#58585C" d="M352.779,81.797l-4.229-4.229c0.872-1.169,1.396-2.614,1.396-4.188c0-3.877-3.144-7.021-7.021-7.021
		s-7.021,3.144-7.021,7.021c0,3.879,3.144,7.02,7.021,7.02c1.524,0,2.933-0.49,4.083-1.316l4.241,4.24
		c0.421,0.423,1.104,0.423,1.526,0C353.199,82.902,353.199,82.219,352.779,81.797z M342.927,78.242c-2.685,0-4.86-2.176-4.86-4.859
		c0-2.685,2.176-4.861,4.86-4.861s4.858,2.177,4.858,4.861C347.785,76.066,345.611,78.242,342.927,78.242z"/>
	<path fill="#58585C" d="M444.498,75.559l3.935-4.111c0.396-0.416,1.036-0.416,1.432,0l0.357,0.373c0.396,0.414,0.396,1.084,0,1.496
		l-4.63,4.84c-0.006,0.008-0.008,0.019-0.016,0.025l-0.356,0.374c-0.199,0.208-0.46,0.31-0.722,0.31c-0.26,0-0.521-0.102-0.719-0.31
		l-0.359-0.374c-0.006-0.008-0.006-0.018-0.014-0.025l-4.629-4.84c-0.396-0.412-0.396-1.082,0-1.496l0.357-0.373
		c0.395-0.416,1.037-0.416,1.432,0L444.498,75.559z"/>
	<path fill="#C7C7CC" d="M289.688,74.168l-3.237,3.27c-0.162,0.156-0.264,0.381-0.264,0.625c0,0.48,0.391,0.875,0.867,0.875h6.134
		v5.469c0,0.604,0.49,1.095,1.093,1.095c0.604,0,1.096-0.49,1.096-1.095v-5.469h6.57c0.477,0,0.865-0.395,0.865-0.875
		c0-0.239-0.096-0.461-0.253-0.617l-3.246-3.28v-7.478h0.655c0.604,0,1.095-0.489,1.095-1.094c0-0.604-0.49-1.094-1.095-1.094
		H289.03c-0.603,0-1.093,0.489-1.093,1.094s0.49,1.094,1.093,1.094h0.657L289.688,74.168L289.688,74.168z M293.625,67.562v5.688
		c0,0.48-0.393,0.874-0.873,0.874c-0.481,0-0.875-0.394-0.875-0.874v-5.688c0-0.481,0.394-0.875,0.875-0.875
		C293.232,66.688,293.625,67.081,293.625,67.562z"/>
	<path id="dashboard-5-icon_15_" fill="#C7C7CC" d="M252.672,75.606c-0.145-0.438-0.32-0.86-0.525-1.267l-2.5,1.127
		c0.223,0.4,0.398,0.825,0.527,1.266L252.672,75.606z M239.863,74.684c0.277-0.359,0.592-0.687,0.938-0.974l-1.926-2.006
		c-0.334,0.3-0.648,0.627-0.938,0.976L239.863,74.684z M241.609,73.143c0.389-0.226,0.797-0.403,1.223-0.534l-1.055-2.616
		c-0.418,0.145-0.826,0.324-1.221,0.535L241.609,73.143z M238.799,76.825c0.123-0.442,0.293-0.87,0.508-1.272l-2.518-1.086
		c-0.199,0.41-0.369,0.836-0.506,1.272L238.799,76.825z M248.412,70.51c-0.395-0.209-0.805-0.386-1.225-0.527l-1.041,2.619
		c0.424,0.13,0.834,0.307,1.223,0.529L248.412,70.51z M251.061,72.68c-0.289-0.348-0.602-0.674-0.938-0.975l-1.924,2.006
		c0.346,0.287,0.658,0.613,0.936,0.975L251.061,72.68z M245.162,69.562c-0.225-0.018-0.445-0.025-0.662-0.025
		s-0.439,0.01-0.662,0.025v2.836c0.219-0.024,0.441-0.037,0.662-0.037s0.441,0.013,0.662,0.037V69.562z M244.5,83.604
		c-1.318,0-2.389-1.068-2.389-2.387c0-0.9,0.5-1.685,1.234-2.091l1.154-5.407l1.152,5.407c0.736,0.406,1.234,1.189,1.234,2.091
		C246.887,82.535,245.818,83.604,244.5,83.604z M233.916,84.169c-1.043-1.8-1.641-3.887-1.641-6.11
		c0-6.741,5.482-12.227,12.225-12.227s12.227,5.484,12.227,12.227c0,2.225-0.598,4.312-1.641,6.11l-2.062-1.19
		c0.84-1.446,1.32-3.129,1.32-4.92c0-5.43-4.416-9.846-9.844-9.846s-9.844,4.416-9.844,9.846c0,1.791,0.48,3.474,1.32,4.92
		L233.916,84.169z"/>
	<polygon fill="#C7C7CC" points="195.962,62.848 179,72.791 179,78.965 182.499,81.005 182.499,83.994 184.259,83.67 
		186.019,85.922 186.019,80.064 182.499,78.138 182.499,78.947 180.592,77.834 180.592,75.777 193.038,83.037 208.408,74.027 
		208.408,76.084 193.038,85.095 187.38,81.795 187.38,83.853 193.038,87.152 210,77.209 210,71.037 	"/>
	<g>
		<g>
			<g>
				<path fill="#949499" d="M100.772,33.07v-2.93h2.321v2.93H100.772z"/>
				<path fill="#949499" d="M117.494,23.289c-0.471-2.13-1.769-3.429-4.036-3.429c-3.344,0-5.002,3.04-5.002,6.081
					s1.658,6.081,5.002,6.081c2.157,0,3.926-1.687,4.145-4.064h1.741c-0.469,3.427-2.708,5.527-5.886,5.527
					c-4.366,0-6.745-3.453-6.745-7.543s2.378-7.547,6.745-7.547c3.041,0,5.389,1.633,5.776,4.895H117.494z"/>
				<path fill="#949499" d="M134.546,25.94c0,4.09-2.376,7.543-6.745,7.543c-4.366,0-6.74-3.453-6.74-7.543s2.374-7.547,6.74-7.547
					C132.17,18.394,134.546,21.85,134.546,25.94z M122.802,25.94c0,3.042,1.658,6.081,4.999,6.081c3.346,0,5.003-3.04,5.003-6.081
					s-1.658-6.081-5.003-6.081C124.46,19.859,122.802,22.899,122.802,25.94z"/>
				<path fill="#949499" d="M137.146,18.811h1.604v2.406h0.083c0.911-1.716,2.405-2.823,4.67-2.823c1.879,0,3.565,0.914,4.09,2.794
					c0.857-1.88,2.654-2.794,4.533-2.794c3.122,0,4.726,1.633,4.726,5.004v9.673h-1.741v-9.59c0-2.351-0.884-3.621-3.372-3.621
					c-3.014,0-3.87,2.489-3.87,5.142v8.069h-1.74v-9.673c0.028-1.935-0.774-3.538-2.985-3.538c-3.012,0-4.229,2.267-4.256,5.253
					v7.958h-1.741V18.811z"/>
			</g>
		</g>
		<g>
			<path fill="#FF671B" d="M93.357,17.982v2.483c-0.471-1.093-2.218-2.95-4.981-2.962c-4.425-0.02-8.015,3.586-8.015,8.018
				c0,4.418,3.59,8.01,8.015,8.01c2.792,0,4.421-1.72,4.981-2.994v2.541h3.438V17.982H93.357z M88.376,30.09
				c-2.526,0-4.574-2.05-4.574-4.569c0-2.529,2.048-4.579,4.574-4.579c2.525,0,4.575,2.05,4.575,4.579
				C92.951,28.041,90.901,30.09,88.376,30.09z"/>
			<polygon fill="#FF671B" points="21.766,32.997 26.677,32.997 18.259,24.874 25.441,17.978 20.657,17.978 13.942,24.401 
				13.942,14 10.5,14 10.5,32.997 13.942,32.997 13.942,29.159 15.797,27.315 			"/>
			<path fill="#FF671B" d="M70.486,17.503c-4.422,0-8.007,3.586-8.007,8.008l0,0l0,0V37h3.437v-4.905
				c1.299,0.902,2.875,1.436,4.571,1.436c4.427,0,8.017-3.594,8.017-8.02C78.502,21.089,74.913,17.503,70.486,17.503z
				 M70.486,30.101c-2.53,0-4.583-2.05-4.583-4.589c0-2.526,2.053-4.579,4.583-4.579c2.538,0,4.586,2.053,4.586,4.579
				C75.072,28.05,73.024,30.101,70.486,30.101z"/>
			<path fill="#FF671B" d="M38.719,17.978v8.258c0,2.384-2.04,3.864-3.967,3.864l0,0l0,0c-1.93,0-3.963-1.48-3.963-3.864v-8.258
				h-3.436c0,0,0,7.571,0,7.585c0,4.424,3.312,8.014,7.399,8.014l0,0l0,0c4.094,0,7.406-3.59,7.406-8.014c0-0.014,0-7.585,0-7.585
				H38.719z"/>
			<path fill="#FF671B" d="M52.504,17.503c-4.433,0-8.015,3.586-8.015,8.008c0,4.426,3.582,8.02,8.015,8.02
				c2.213,0,4.211-0.902,5.667-2.348l-2.427-2.43c-0.83,0.836-1.975,1.347-3.241,1.347c-1.967,0-3.64-1.23-4.292-2.966h12.114
				l0.021,0.014c0.113-0.528,0.169-1.073,0.169-1.637C60.516,21.089,56.928,17.503,52.504,17.503z M52.504,20.932
				c1.962,0,3.637,1.23,4.289,2.962h-8.582C48.865,22.162,50.538,20.932,52.504,20.932z"/>
		</g>
	</g>
	<path id="home-6-icon" fill="#FF671B" d="M194.5,117.775l-8,7.994h1.65v6.455h12.699v-6.455h1.65L194.5,117.775z M199.102,130.477
		h-2.865v-3.358h-3.473v3.358h-2.865v-5.632l4.602-4.598l4.602,4.598V130.477z"/>
	<path id="gear-icon" fill="#C7C7CC" d="M452.5,126.077v-2.154l-1.164-0.414c-0.444-0.158-0.801-0.497-0.981-0.933h-0.001
		c-0.181-0.437-0.168-0.929,0.035-1.355l0.53-1.116l-1.524-1.523l-1.115,0.53c-0.426,0.203-0.919,0.216-1.355,0.034l0,0
		c-0.436-0.18-0.774-0.537-0.933-0.98L445.577,117h-2.154l-0.414,1.164c-0.158,0.444-0.497,0.802-0.933,0.981l0,0
		c-0.437,0.182-0.93,0.169-1.355-0.034l-1.115-0.53l-1.524,1.523l0.53,1.115c0.203,0.427,0.216,0.92,0.035,1.356
		c0,0,0,0-0.001,0.001c-0.181,0.436-0.537,0.773-0.981,0.932l-1.164,0.414v2.154l1.164,0.414c0.444,0.158,0.801,0.498,0.981,0.932
		c0.001,0.002,0.001,0.002,0.001,0.002c0.181,0.436,0.168,0.928-0.035,1.354l-0.53,1.115l1.524,1.524l1.115-0.529
		c0.426-0.204,0.919-0.217,1.355-0.036l0,0c0.436,0.182,0.774,0.538,0.932,0.981l0.415,1.165h2.154l0.411-1.157
		c0.16-0.448,0.502-0.808,0.941-0.991l0,0c0.432-0.179,0.92-0.167,1.343,0.034l1.122,0.533l1.524-1.524l-0.53-1.116
		c-0.203-0.426-0.216-0.918-0.035-1.354l0,0c0.182-0.436,0.538-0.775,0.982-0.934L452.5,126.077z M444.5,127.934
		c-1.62,0-2.934-1.313-2.934-2.934s1.313-2.934,2.934-2.934s2.934,1.313,2.934,2.934S446.12,127.934,444.5,127.934z"/>
	<path id="user-icon_1_" fill="#5186FB" d="M400.381,129.058c-2.292-0.529-4.426-0.992-3.393-2.941
		c3.146-5.931,0.834-9.103-2.488-9.103c-3.388,0-5.643,3.294-2.488,9.103c1.064,1.961-1.15,2.424-3.393,2.941
		c-2.292,0.528-2.116,1.736-2.116,3.929h15.994C402.497,130.794,402.673,129.586,400.381,129.058z"/>
	<path id="calendar-4-icon" fill="#6F52DB" d="M249.938,119.536c0,0.397-0.322,0.721-0.72,0.721s-0.72-0.323-0.72-0.721v-1.812
		c0-0.398,0.322-0.721,0.72-0.721s0.72,0.322,0.72,0.721V119.536z M240.538,117.72c0-0.396-0.322-0.72-0.72-0.72
		c-0.398,0-0.721,0.323-0.721,0.72v1.812c0,0.398,0.322,0.721,0.721,0.721c0.397,0,0.72-0.322,0.72-0.721V117.72z M250.81,118.772
		v0.736c0,0.878-0.713,1.592-1.591,1.592c-0.877,0-1.591-0.714-1.591-1.592v-0.736h-6.22v0.734c0,0.877-0.713,1.59-1.59,1.59
		s-1.591-0.713-1.591-1.59v-0.734H236.5V133h16v-14.228H250.81z M250.5,131h-12v-9h12V131z M244.64,127.743
		c0-0.582-0.305-1.04-0.808-1.233c0.385-0.192,0.608-0.587,0.608-1.095c0-0.979-0.955-1.564-1.879-1.564
		c-1.075,0-1.886,0.674-1.935,2.012h1.196c-0.011-0.554,0.197-0.956,0.746-0.956c0.327,0,0.679,0.196,0.679,0.632
		c0,0.549-0.594,0.627-1.141,0.58v0.932c0.777,0,1.24,0.049,1.24,0.717c0,0.526-0.398,0.764-0.793,0.764
		c-0.6,0-0.844-0.447-0.866-1.058H240.5c-0.021,1.377,0.812,2.104,2.069,2.104C243.692,129.576,244.64,128.89,244.64,127.743z
		 M247.779,129.478v-5.52h-1.014c-0.125,0.84-0.724,1.085-1.58,1.062V126h1.348v3.478H247.779z"/>
	<g>
		<polygon fill="#81CC47" points="291,126 291,122 287,122 287,129 297,129 297,126 		"/>
		<rect x="292" y="118" fill="#81CC47" width="10" height="7"/>
		<polygon fill="#81CC47" points="288,132 288,129 291,129 		"/>
		<polygon fill="#81CC47" points="301,128 301,125 298,125 		"/>
	</g>
	<g>
		<g>
			<path fill="#E61523" d="M336.227,129.041l0.727-0.672c0.852,0.412,1.393,0.725,2.348,1.408c1.799-2.043,2.988-3.078,5.197-4.451
				l0.236,0.543c-1.822,1.59-3.156,3.361-5.078,6.807C338.473,131.279,337.682,130.391,336.227,129.041z"/>
			<rect x="347.117" y="127.531" fill="#E61523" width="5.658" height="1.615"/>
			<rect x="347.117" y="130.562" fill="#E61523" width="5.658" height="1.615"/>
		</g>
		<g>
			<path fill="#E61523" d="M336.227,121.041l0.727-0.672c0.852,0.412,1.393,0.725,2.348,1.408c1.799-2.043,2.988-3.078,5.197-4.451
				l0.236,0.543c-1.822,1.59-3.156,3.361-5.078,6.807C338.473,123.279,337.682,122.391,336.227,121.041z"/>
			<rect x="347.117" y="119.531" fill="#E61523" width="5.658" height="1.615"/>
			<rect x="347.117" y="122.562" fill="#E61523" width="5.658" height="1.615"/>
		</g>
	</g>
	<path id="home-6-icon_2_" fill="#FFFFFF" d="M194.5,167.775l-8,7.994h1.65v6.455h12.699v-6.455h1.65L194.5,167.775z
		 M199.102,180.477h-2.865v-3.358h-3.473v3.358h-2.865v-5.632l4.602-4.598l4.602,4.598V180.477z"/>
	<path id="gear-icon_2_" fill="#FFFFFF" d="M452.5,176.077v-2.154l-1.164-0.414c-0.444-0.158-0.801-0.497-0.981-0.933h-0.001
		c-0.181-0.437-0.168-0.929,0.035-1.355l0.53-1.116l-1.524-1.523l-1.115,0.53c-0.426,0.203-0.919,0.216-1.355,0.034l0,0
		c-0.436-0.18-0.774-0.537-0.933-0.98L445.577,167h-2.154l-0.414,1.164c-0.158,0.444-0.497,0.802-0.933,0.981l0,0
		c-0.437,0.182-0.93,0.169-1.355-0.034l-1.115-0.53l-1.524,1.523l0.53,1.115c0.203,0.427,0.216,0.92,0.035,1.356
		c0,0,0,0-0.001,0.001c-0.181,0.436-0.537,0.773-0.981,0.932l-1.164,0.414v2.154l1.164,0.414c0.444,0.158,0.801,0.498,0.981,0.932
		c0.001,0.002,0.001,0.002,0.001,0.002c0.181,0.436,0.168,0.928-0.035,1.354l-0.53,1.115l1.524,1.524l1.115-0.529
		c0.426-0.204,0.919-0.217,1.355-0.036l0,0c0.436,0.182,0.774,0.538,0.932,0.981l0.415,1.165h2.154l0.411-1.157
		c0.16-0.448,0.502-0.808,0.941-0.991l0,0c0.432-0.179,0.92-0.167,1.343,0.034l1.122,0.533l1.524-1.524l-0.53-1.116
		c-0.203-0.426-0.216-0.918-0.035-1.354l0,0c0.182-0.436,0.538-0.775,0.982-0.934L452.5,176.077z M444.5,177.934
		c-1.62,0-2.934-1.313-2.934-2.934s1.313-2.934,2.934-2.934s2.934,1.313,2.934,2.934S446.12,177.934,444.5,177.934z"/>
	<path id="user-icon_3_" fill="#FFFFFF" d="M400.381,179.058c-2.292-0.529-4.426-0.992-3.393-2.941
		c3.146-5.931,0.834-9.103-2.488-9.103c-3.388,0-5.643,3.294-2.488,9.103c1.064,1.961-1.15,2.424-3.393,2.941
		c-2.292,0.528-2.116,1.736-2.116,3.929h15.994C402.497,180.794,402.673,179.586,400.381,179.058z"/>
	<path id="calendar-4-icon_2_" fill="#FFFFFF" d="M249.938,169.536c0,0.397-0.322,0.721-0.72,0.721s-0.72-0.323-0.72-0.721v-1.812
		c0-0.398,0.322-0.721,0.72-0.721s0.72,0.322,0.72,0.721V169.536z M240.538,167.72c0-0.396-0.322-0.72-0.72-0.72
		c-0.398,0-0.721,0.323-0.721,0.72v1.812c0,0.398,0.322,0.721,0.721,0.721c0.397,0,0.72-0.322,0.72-0.721V167.72z M250.81,168.772
		v0.736c0,0.878-0.713,1.592-1.591,1.592c-0.877,0-1.591-0.714-1.591-1.592v-0.736h-6.22v0.734c0,0.877-0.713,1.59-1.59,1.59
		s-1.591-0.713-1.591-1.59v-0.734H236.5V183h16v-14.228H250.81z M250.5,181h-12v-9h12V181z M244.64,177.743
		c0-0.582-0.305-1.04-0.808-1.233c0.385-0.192,0.608-0.587,0.608-1.095c0-0.979-0.955-1.564-1.879-1.564
		c-1.075,0-1.886,0.674-1.935,2.012h1.196c-0.011-0.554,0.197-0.956,0.746-0.956c0.327,0,0.679,0.196,0.679,0.632
		c0,0.549-0.594,0.627-1.141,0.58v0.932c0.777,0,1.24,0.049,1.24,0.717c0,0.526-0.398,0.764-0.793,0.764
		c-0.6,0-0.844-0.447-0.866-1.058H240.5c-0.021,1.377,0.812,2.104,2.069,2.104C243.692,179.576,244.64,178.89,244.64,177.743z
		 M247.779,179.478v-5.52h-1.014c-0.125,0.84-0.724,1.085-1.58,1.062V176h1.348v3.478H247.779z"/>
	<g>
		<polygon fill="#FFFFFF" points="291,176 291,172 287,172 287,179 297,179 297,176 		"/>
		<rect x="292" y="168" fill="#FFFFFF" width="10" height="7"/>
		<polygon fill="#FFFFFF" points="288,182 288,179 291,179 		"/>
		<polygon fill="#FFFFFF" points="301,178 301,175 298,175 		"/>
	</g>
	<g>
		<g>
			<path fill="#FFFFFF" d="M336.227,179.041l0.727-0.672c0.852,0.412,1.393,0.725,2.348,1.408c1.799-2.043,2.988-3.078,5.197-4.451
				l0.236,0.543c-1.822,1.59-3.156,3.361-5.078,6.807C338.473,181.279,337.682,180.391,336.227,179.041z"/>
			<rect x="347.117" y="177.531" fill="#FFFFFF" width="5.658" height="1.615"/>
			<rect x="347.117" y="180.562" fill="#FFFFFF" width="5.658" height="1.615"/>
		</g>
		<g>
			<path fill="#FFFFFF" d="M336.227,171.041l0.727-0.672c0.852,0.412,1.393,0.725,2.348,1.408c1.799-2.043,2.988-3.078,5.197-4.451
				l0.236,0.543c-1.822,1.59-3.156,3.361-5.078,6.807C338.473,173.279,337.682,172.391,336.227,171.041z"/>
			<rect x="347.117" y="169.531" fill="#FFFFFF" width="5.658" height="1.615"/>
			<rect x="347.117" y="172.562" fill="#FFFFFF" width="5.658" height="1.615"/>
		</g>
	</g>
	<g>
		<path fill="#FFFFFF" d="M194.5,219c-3.655,0-6.505,2.288-10,5.997c3.011,3.173,5.538,6.003,10,6.003s7.741-3.583,10-5.936
			C202.188,222.309,198.909,219,194.5,219z M194.5,229c-2.206,0-4-1.795-4-4c0-2.206,1.794-4,4-4s4,1.794,4,4
			C198.5,227.205,196.706,229,194.5,229z"/>
		<circle fill="#FFFFFF" cx="194.5" cy="225" r="2.333"/>
	</g>
	<g>
		<path fill="#FFFFFF" d="M251.23,218.269c-1.48-1.479-2.591-1.258-2.591-1.258l-5.183,5.182l-5.922,5.922L236.5,233l4.885-1.036
			l5.922-5.922l5.182-5.182C252.488,220.86,252.71,219.75,251.23,218.269z M241.095,231.376l-1.666,0.359
			c-0.161-0.302-0.354-0.602-0.709-0.956c-0.354-0.354-0.654-0.548-0.956-0.709l0.359-1.665l0.481-0.481c0,0,0.906,0.019,1.93,1.042
			c1.022,1.022,1.041,1.93,1.041,1.93L241.095,231.376z"/>
	</g>
	<path fill="#FFFFFF" d="M304.5,229.847V216h-20v13.847h9.615v1.487l-3.647,2.021l0.373,0.673L294.5,232l3.659,2.027l0.373-0.673
		l-3.647-2.021v-1.487H304.5z M299.885,220.615c1.272,0,2.308,1.035,2.308,2.308s-1.035,2.308-2.308,2.308s-2.308-1.035-2.308-2.308
		S298.612,220.615,299.885,220.615z M294.279,226.323l-2.462-3.435l-1.647,3.194l-2.175-4.388l-1.223,4.509l-0.742-0.201
		l1.753-6.468l2.4,4.844l1.526-2.96l2.281,3.181l1.679-5.633l0.737,0.221L294.279,226.323z"/>
</g>
</svg>
