<?xml version="1.0" encoding="utf-8"?>
<!-- Generator: Adobe Illustrator 15.0.0, SVG Export Plug-In . SVG Version: 6.00 Build 0)  -->
<!DOCTYPE svg PUBLIC "-//W3C//DTD SVG 1.1//EN" "http://www.w3.org/Graphics/SVG/1.1/DTD/svg11.dtd">
<svg version="1.1" id="Layer_1" xmlns="http://www.w3.org/2000/svg" xmlns:xlink="http://www.w3.org/1999/xlink" x="0px" y="0px"
	 width="410px" height="99px" viewBox="0 0 410 99" enable-background="new 0 0 410 99" xml:space="preserve">
<path fill-rule="evenodd" clip-rule="evenodd" fill="#A1A1A4" d="M293.685,31.436l-4.228-4.228c0.872-1.169,1.396-2.615,1.396-4.187
	c0-3.878-3.143-7.021-7.02-7.021s-7.021,3.143-7.021,7.021c0,3.877,3.144,7.019,7.021,7.019c1.524,0,2.932-0.491,4.083-1.316
	l4.241,4.24c0.421,0.423,1.105,0.423,1.527,0C294.105,32.542,294.105,31.858,293.685,31.436z M283.833,27.88
	c-2.685,0-4.86-2.175-4.86-4.86c0-2.684,2.176-4.861,4.86-4.861c2.684,0,4.859,2.177,4.859,4.861
	C288.692,25.706,286.517,27.88,283.833,27.88z"/>
<g>
	<polygon fill="#F76E26" points="22.328,33.155 27.377,33.155 18.723,24.536 26.105,17.211 21.186,17.211 14.285,24.053 
		14.285,13.362 10.751,13.362 10.751,33.155 14.285,33.155 14.285,28.937 16.191,27.044 	"/>
	<path fill="#F76E26" d="M90.764,16.961c-4.547,0-8.234,3.689-8.234,8.236c0,4.548,3.688,8.234,8.234,8.234
		c1.748,0,3.367-0.546,4.699-1.473v1.196H99v-7.958C99,20.65,95.312,16.961,90.764,16.961z M90.764,29.908
		c-2.603,0-4.711-2.109-4.711-4.711c0-2.601,2.108-4.711,4.711-4.711c2.602,0,4.713,2.11,4.713,4.711
		C95.477,27.799,93.365,29.908,90.764,29.908z"/>
	<path fill="#F76E26" d="M72.396,16.961c-4.55,0-8.235,3.689-8.235,8.236l0,0l0,0V37h3.533v-5.042
		c1.334,0.926,2.954,1.473,4.702,1.473c4.547,0,8.235-3.686,8.235-8.234C80.631,20.65,76.943,16.961,72.396,16.961z M72.396,29.908
		c-2.603,0-4.711-2.109-4.711-4.711c0-2.601,2.108-4.711,4.711-4.711c2.601,0,4.711,2.11,4.711,4.711
		C77.107,27.799,74.998,29.908,72.396,29.908z"/>
	<path fill="#F76E26" d="M39.748,17.211v8.732c0,2.446-2.095,3.965-4.074,3.965l0,0l0,0c-1.98,0-4.076-1.519-4.076-3.965v-8.732
		h-3.531c0,0,0,8.018,0,8.034c0,4.545,3.404,8.235,7.607,8.235l0,0l0,0c4.203,0,7.609-3.689,7.609-8.235c0-0.017,0-8.034,0-8.034
		H39.748z"/>
	<path fill="#F76E26" d="M53.913,16.961c-4.547,0-8.235,3.689-8.235,8.236c0,4.548,3.688,8.234,8.235,8.234
		c2.276,0,4.333-0.922,5.823-2.411l-2.491-2.491c-0.854,0.853-2.031,1.379-3.332,1.379c-2.019,0-3.737-1.267-4.409-3.05h12.453
		l0.02,0.017c0.111-0.542,0.172-1.102,0.172-1.678C62.148,20.65,58.462,16.961,53.913,16.961z M53.913,20.486
		c2.019,0,3.735,1.268,4.409,3.048h-8.818C50.176,21.754,51.895,20.486,53.913,20.486z"/>
</g>
<path fill-rule="evenodd" clip-rule="evenodd" fill="#A1A1A4" d="M385.018,24.422l3.934-4.112c0.396-0.415,1.037-0.415,1.432,0
	l0.357,0.374c0.396,0.414,0.396,1.083,0,1.496l-4.629,4.84c-0.007,0.008-0.009,0.018-0.016,0.026l-0.357,0.374
	c-0.199,0.208-0.459,0.309-0.721,0.309c-0.26,0-0.521-0.101-0.719-0.309l-0.359-0.374c-0.006-0.008-0.007-0.019-0.014-0.026
	l-4.629-4.84c-0.396-0.413-0.396-1.082,0-1.496l0.357-0.374c0.395-0.415,1.037-0.415,1.432,0L385.018,24.422z"/>
<circle fill-rule="evenodd" clip-rule="evenodd" fill="#5789FA" cx="335" cy="24.5" r="16.5"/>
<g>
	<g opacity="0.27">
		<path fill-rule="evenodd" clip-rule="evenodd" d="M342.438,33h-14.875c-0.587,0-1.062-0.476-1.062-1.062v-1.063
			c0-0.896,1.062-1.061,1.062-1.061l5.521-2.737c-1.486-1.192-2.335-3.542-2.335-4.704v-2.656c0-1.76,1.903-3.718,4.251-3.718
			s4.249,1.958,4.249,3.718v2.656c0,1.278-0.841,3.554-2.313,4.713l5.502,2.727c0,0,1.062,0.181,1.062,1.061v1.063
			C343.5,32.524,343.023,33,342.438,33z"/>
	</g>
	<g>
		<path fill-rule="evenodd" clip-rule="evenodd" fill="#FFFFFF" d="M342.438,32h-14.875c-0.587,0-1.062-0.476-1.062-1.062v-1.063
			c0-0.896,1.062-1.061,1.062-1.061l5.521-2.737c-1.486-1.192-2.335-3.542-2.335-4.704v-2.656c0-1.76,1.903-3.718,4.251-3.718
			s4.249,1.958,4.249,3.718v2.656c0,1.278-0.841,3.554-2.313,4.713l5.502,2.727c0,0,1.062,0.181,1.062,1.061v1.063
			C343.5,31.524,343.023,32,342.438,32z"/>
	</g>
</g>
<path fill-rule="evenodd" clip-rule="evenodd" fill="#595959" d="M229.501,24.668l-3.237,3.269
	c-0.162,0.157-0.264,0.381-0.264,0.625c0,0.481,0.391,0.875,0.867,0.875h6.134v5.468c0,0.605,0.49,1.094,1.093,1.094
	c0.604,0,1.095-0.489,1.095-1.094v-5.468h6.571c0.477,0,0.865-0.394,0.865-0.875c0-0.24-0.096-0.46-0.253-0.617l-3.246-3.281v-7.477
	h0.655c0.604,0,1.095-0.49,1.095-1.093c0-0.605-0.49-1.095-1.095-1.095h-10.938c-0.603,0-1.093,0.49-1.093,1.095
	c0,0.603,0.49,1.093,1.093,1.093h0.657V24.668z M233.438,18.062v5.688c0,0.481-0.393,0.875-0.874,0.875s-0.875-0.393-0.875-0.875
	v-5.688c0-0.481,0.394-0.875,0.875-0.875S233.438,17.581,233.438,18.062z"/>
<path id="dashboard-5-icon_14_" fill="#5789FA" d="M192.946,23.864c-0.144-0.436-0.321-0.861-0.526-1.266l-2.5,1.126
	c0.222,0.401,0.398,0.826,0.527,1.266L192.946,23.864z M180.137,22.942c0.277-0.36,0.591-0.686,0.937-0.974l-1.926-2.005
	c-0.334,0.3-0.648,0.626-0.936,0.974L180.137,22.942z M181.884,21.4c0.387-0.224,0.795-0.403,1.221-0.534l-1.054-2.616
	c-0.417,0.144-0.827,0.324-1.22,0.534L181.884,21.4z M179.073,25.083c0.122-0.442,0.292-0.871,0.507-1.273l-2.517-1.086
	c-0.2,0.411-0.37,0.837-0.507,1.273L179.073,25.083z M188.685,18.767c-0.394-0.208-0.804-0.385-1.223-0.528l-1.042,2.621
	c0.424,0.128,0.835,0.305,1.222,0.528L188.685,18.767z M191.334,20.937c-0.288-0.348-0.602-0.674-0.937-0.974l-1.925,2.005
	c0.346,0.288,0.66,0.614,0.936,0.974L191.334,20.937z M185.435,17.821c-0.223-0.017-0.445-0.026-0.662-0.026
	s-0.439,0.009-0.662,0.026v2.836c0.22-0.025,0.442-0.038,0.662-0.038c0.221,0,0.442,0.013,0.662,0.038V17.821z M184.774,31.861
	c-1.318,0-2.388-1.068-2.388-2.386c0-0.9,0.499-1.684,1.234-2.09l1.153-5.407l1.154,5.407c0.736,0.407,1.233,1.19,1.233,2.09
	C187.161,30.792,186.093,31.861,184.774,31.861z M174.189,32.427c-1.042-1.799-1.64-3.887-1.64-6.111
	c0-6.741,5.483-12.225,12.225-12.225c6.741,0,12.226,5.484,12.226,12.225c0,2.225-0.598,4.312-1.641,6.111l-2.061-1.19
	c0.839-1.447,1.32-3.129,1.32-4.921c0-5.428-4.416-9.844-9.844-9.844c-5.429,0-9.845,4.416-9.845,9.844
	c0,1.792,0.481,3.474,1.321,4.921L174.189,32.427z"/>
<polygon fill="#5789FA" points="136.962,13 120,22.943 120,29.117 123.499,31.157 123.499,34.147 125.259,33.823 127.019,36.074 
	127.019,30.217 123.499,28.29 123.499,29.099 121.592,27.987 121.592,25.93 134.038,33.19 149.408,24.18 149.408,26.237 
	134.038,35.247 128.38,31.947 128.38,34.005 134.038,37.305 151,27.362 151,21.189 "/>
<path fill-rule="evenodd" clip-rule="evenodd" fill="#595959" d="M293.685,81.436l-4.228-4.229c0.872-1.169,1.396-2.614,1.396-4.187
	c0-3.878-3.143-7.021-7.02-7.021s-7.021,3.143-7.021,7.021s3.144,7.019,7.021,7.019c1.524,0,2.932-0.49,4.083-1.316l4.241,4.24
	c0.421,0.423,1.105,0.423,1.527,0C294.105,82.541,294.105,81.857,293.685,81.436z M283.833,77.881c-2.685,0-4.86-2.176-4.86-4.86
	s2.176-4.861,4.86-4.861c2.684,0,4.859,2.177,4.859,4.861S286.517,77.881,283.833,77.881z"/>
<path fill-rule="evenodd" clip-rule="evenodd" fill="#595959" d="M385.018,74.422l3.934-4.111c0.396-0.416,1.037-0.416,1.432,0
	l0.357,0.373c0.396,0.414,0.396,1.084,0,1.496l-4.629,4.84c-0.007,0.008-0.009,0.018-0.016,0.025l-0.357,0.374
	c-0.199,0.208-0.459,0.31-0.721,0.31c-0.26,0-0.521-0.102-0.719-0.31l-0.359-0.374c-0.006-0.008-0.007-0.018-0.014-0.025
	l-4.629-4.84c-0.396-0.412-0.396-1.082,0-1.496l0.357-0.373c0.395-0.416,1.037-0.416,1.432,0L385.018,74.422z"/>
<path fill-rule="evenodd" clip-rule="evenodd" fill="#DBDBDB" d="M229.501,74.668l-3.237,3.27c-0.162,0.156-0.264,0.381-0.264,0.625
	c0,0.48,0.391,0.875,0.867,0.875h6.134v5.468c0,0.604,0.49,1.095,1.093,1.095c0.604,0,1.095-0.49,1.095-1.095v-5.468h6.571
	c0.477,0,0.865-0.395,0.865-0.875c0-0.24-0.096-0.461-0.253-0.617l-3.246-3.281v-7.477h0.655c0.604,0,1.095-0.49,1.095-1.094
	c0-0.604-0.49-1.094-1.095-1.094h-10.938c-0.603,0-1.093,0.489-1.093,1.094c0,0.604,0.49,1.094,1.093,1.094h0.657V74.668z
	 M233.438,68.062v5.688c0,0.48-0.393,0.874-0.874,0.874s-0.875-0.394-0.875-0.874v-5.688c0-0.481,0.394-0.875,0.875-0.875
	S233.438,67.581,233.438,68.062z"/>
<path id="dashboard-5-icon_15_" fill="#DBDBDB" d="M192.946,73.864c-0.144-0.437-0.321-0.86-0.526-1.267l-2.5,1.127
	c0.222,0.401,0.398,0.826,0.527,1.266L192.946,73.864z M180.137,72.942c0.277-0.36,0.591-0.687,0.937-0.974l-1.926-2.006
	c-0.334,0.3-0.648,0.627-0.936,0.975L180.137,72.942z M181.884,71.4c0.387-0.225,0.795-0.403,1.221-0.534l-1.054-2.616
	c-0.417,0.145-0.827,0.324-1.22,0.535L181.884,71.4z M179.073,75.083c0.122-0.442,0.292-0.87,0.507-1.272l-2.517-1.087
	c-0.2,0.411-0.37,0.837-0.507,1.273L179.073,75.083z M188.685,68.768c-0.394-0.209-0.804-0.386-1.223-0.528l-1.042,2.62
	c0.424,0.129,0.835,0.306,1.222,0.528L188.685,68.768z M191.334,70.938c-0.288-0.348-0.602-0.675-0.937-0.975l-1.925,2.006
	c0.346,0.287,0.66,0.613,0.936,0.974L191.334,70.938z M185.435,67.82c-0.223-0.017-0.445-0.025-0.662-0.025
	s-0.439,0.009-0.662,0.025v2.836c0.22-0.024,0.442-0.037,0.662-0.037c0.221,0,0.442,0.013,0.662,0.037V67.82z M184.774,81.861
	c-1.318,0-2.388-1.068-2.388-2.387c0-0.9,0.499-1.684,1.234-2.09l1.153-5.408l1.154,5.408c0.736,0.406,1.233,1.189,1.233,2.09
	C187.161,80.793,186.093,81.861,184.774,81.861z M174.189,82.427c-1.042-1.8-1.64-3.887-1.64-6.111
	c0-6.741,5.483-12.226,12.225-12.226c6.741,0,12.226,5.484,12.226,12.226c0,2.225-0.598,4.312-1.641,6.111l-2.061-1.19
	c0.839-1.447,1.32-3.129,1.32-4.921c0-5.429-4.416-9.845-9.844-9.845c-5.429,0-9.845,4.416-9.845,9.845
	c0,1.792,0.481,3.474,1.321,4.921L174.189,82.427z"/>
<polygon fill="#DBDBDB" points="136.962,63 120,72.943 120,79.117 123.499,81.157 123.499,84.146 125.259,83.822 127.019,86.074 
	127.019,80.217 123.499,78.29 123.499,79.1 121.592,77.987 121.592,75.93 134.038,83.19 149.408,74.18 149.408,76.237 
	134.038,85.247 128.38,81.947 128.38,84.005 134.038,87.305 151,77.362 151,71.189 "/>
</svg>
